<?xml version="1.0" standalone="no"?><!DOCTYPE svg PUBLIC "-//W3C//DTD SVG 1.1//EN" "http://www.w3.org/Graphics/SVG/1.1/DTD/svg11.dtd"><svg t="1564038588981" class="icon" viewBox="0 0 1024 1024" version="1.1" xmlns="http://www.w3.org/2000/svg" p-id="10886" xmlns:xlink="http://www.w3.org/1999/xlink" width="128" height="128"><defs><style type="text/css"></style></defs><path d="M15.995849 0v1023.734319" fill="" p-id="10887"></path><path d="M31.991697 0v1023.734319" fill="" p-id="10888"></path><path d="M47.987546 0v1023.734319" fill="" p-id="10889"></path><path d="M63.983395 0v1023.734319" fill="" p-id="10890"></path><path d="M79.979244 0v1023.734319" fill="" p-id="10891"></path><path d="M95.975092 0v1023.734319" fill="" p-id="10892"></path><path d="M111.970941 0v1023.734319" fill="" p-id="10893"></path><path d="M127.96679 0v1023.734319" fill="" p-id="10894"></path><path d="M143.962639 0v1023.734319" fill="" p-id="10895"></path><path d="M159.958487 0v1023.734319" fill="" p-id="10896"></path><path d="M175.954336 0v1023.734319" fill="" p-id="10897"></path><path d="M191.950185 0v1023.734319" fill="" p-id="10898"></path><path d="M207.946034 0v1023.734319" fill="" p-id="10899"></path><path d="M223.941882 0v1023.734319" fill="" p-id="10900"></path><path d="M239.937731 0v1023.734319" fill="" p-id="10901"></path><path d="M255.93358 0v1023.734319" fill="" p-id="10902"></path><path d="M271.929428 0v1023.734319" fill="" p-id="10903"></path><path d="M287.925277 0v1023.734319" fill="" p-id="10904"></path><path d="M303.921126 0v1023.734319" fill="" p-id="10905"></path><path d="M319.916975 0v1023.734319" fill="" p-id="10906"></path><path d="M335.912823 0v1023.734319" fill="" p-id="10907"></path><path d="M351.908672 0v1023.734319" fill="" p-id="10908"></path><path d="M367.904521 0v1023.734319" fill="" p-id="10909"></path><path d="M383.90037 0v1023.734319" fill="" p-id="10910"></path><path d="M399.896218 0v1023.734319" fill="" p-id="10911"></path><path d="M415.892067 0v1023.734319" fill="" p-id="10912"></path><path d="M431.887916 0v1023.734319" fill="" p-id="10913"></path><path d="M447.883765 0v1023.734319" fill="" p-id="10914"></path><path d="M463.879613 0v1023.734319" fill="" p-id="10915"></path><path d="M479.875462 0v1023.734319" fill="" p-id="10916"></path><path d="M495.871311 0v1023.734319" fill="" p-id="10917"></path><path d="M511.867159 0v1023.734319" fill="" p-id="10918"></path><path d="M527.863008 0v1023.734319" fill="" p-id="10919"></path><path d="M543.858857 0v1023.734319" fill="" p-id="10920"></path><path d="M559.854706 0v1023.734319" fill="" p-id="10921"></path><path d="M575.850554 0v1023.734319" fill="" p-id="10922"></path><path d="M591.846403 0v1023.734319" fill="" p-id="10923"></path><path d="M607.842252 0v1023.734319" fill="" p-id="10924"></path><path d="M623.838101 0v1023.734319" fill="" p-id="10925"></path><path d="M639.833949 0v1023.734319" fill="" p-id="10926"></path><path d="M655.829798 0v1023.734319" fill="" p-id="10927"></path><path d="M671.825647 0v1023.734319" fill="" p-id="10928"></path><path d="M687.821496 0v1023.734319" fill="" p-id="10929"></path><path d="M703.817344 0v1023.734319" fill="" p-id="10930"></path><path d="M719.813193 0v1023.734319" fill="" p-id="10931"></path><path d="M735.809042 0v1023.734319" fill="" p-id="10932"></path><path d="M751.80489 0v1023.734319" fill="" p-id="10933"></path><path d="M767.800739 0v1023.734319" fill="" p-id="10934"></path><path d="M783.796588 0v1023.734319" fill="" p-id="10935"></path><path d="M799.792437 0v1023.734319" fill="" p-id="10936"></path><path d="M815.788285 0v1023.734319" fill="" p-id="10937"></path><path d="M831.784134 0v1023.734319" fill="" p-id="10938"></path><path d="M847.779983 0v1023.734319" fill="" p-id="10939"></path><path d="M863.775832 0v1023.734319" fill="" p-id="10940"></path><path d="M879.77168 0v1023.734319" fill="" p-id="10941"></path><path d="M895.767529 0v1023.734319" fill="" p-id="10942"></path><path d="M911.763378 0v1023.734319" fill="" p-id="10943"></path><path d="M927.759227 0v1023.734319" fill="" p-id="10944"></path><path d="M943.755075 0v1023.734319" fill="" p-id="10945"></path><path d="M959.750924 0v1023.734319" fill="" p-id="10946"></path><path d="M975.746773 0v1023.734319" fill="" p-id="10947"></path><path d="M991.742621 0v1023.734319" fill="" p-id="10948"></path><path d="M1007.73847 0v1023.734319M0 15.995849h1023.734319" fill="" p-id="10949"></path><path d="M0 31.991697h1023.734319" fill="" p-id="10950"></path><path d="M0 47.987546h1023.734319" fill="" p-id="10951"></path><path d="M0 63.983395h1023.734319" fill="" p-id="10952"></path><path d="M0 79.979244h1023.734319" fill="" p-id="10953"></path><path d="M0 95.975092h1023.734319" fill="" p-id="10954"></path><path d="M0 111.970941h1023.734319" fill="" p-id="10955"></path><path d="M0 127.96679h1023.734319" fill="" p-id="10956"></path><path d="M0 143.962639h1023.734319" fill="" p-id="10957"></path><path d="M0 159.958487h1023.734319" fill="" p-id="10958"></path><path d="M0 175.954336h1023.734319" fill="" p-id="10959"></path><path d="M0 191.950185h1023.734319" fill="" p-id="10960"></path><path d="M0 207.946034h1023.734319" fill="" p-id="10961"></path><path d="M0 223.941882h1023.734319" fill="" p-id="10962"></path><path d="M0 239.937731h1023.734319" fill="" p-id="10963"></path><path d="M0 255.93358h1023.734319" fill="" p-id="10964"></path><path d="M0 271.929428h1023.734319" fill="" p-id="10965"></path><path d="M0 287.925277h1023.734319" fill="" p-id="10966"></path><path d="M0 303.921126h1023.734319" fill="" p-id="10967"></path><path d="M0 319.916975h1023.734319" fill="" p-id="10968"></path><path d="M0 335.912823h1023.734319" fill="" p-id="10969"></path><path d="M0 351.908672h1023.734319" fill="" p-id="10970"></path><path d="M0 367.904521h1023.734319" fill="" p-id="10971"></path><path d="M0 383.90037h1023.734319" fill="" p-id="10972"></path><path d="M0 399.896218h1023.734319" fill="" p-id="10973"></path><path d="M0 415.892067h1023.734319" fill="" p-id="10974"></path><path d="M0 431.887916h1023.734319" fill="" p-id="10975"></path><path d="M0 447.883765h1023.734319" fill="" p-id="10976"></path><path d="M0 463.879613h1023.734319" fill="" p-id="10977"></path><path d="M0 479.875462h1023.734319" fill="" p-id="10978"></path><path d="M0 495.871311h1023.734319" fill="" p-id="10979"></path><path d="M0 511.867159h1023.734319" fill="" p-id="10980"></path><path d="M0 527.863008h1023.734319" fill="" p-id="10981"></path><path d="M0 543.858857h1023.734319" fill="" p-id="10982"></path><path d="M0 559.854706h1023.734319" fill="" p-id="10983"></path><path d="M0 575.850554h1023.734319" fill="" p-id="10984"></path><path d="M0 591.846403h1023.734319" fill="" p-id="10985"></path><path d="M0 607.842252h1023.734319" fill="" p-id="10986"></path><path d="M0 623.838101h1023.734319" fill="" p-id="10987"></path><path d="M0 639.833949h1023.734319" fill="" p-id="10988"></path><path d="M0 655.829798h1023.734319" fill="" p-id="10989"></path><path d="M0 671.825647h1023.734319" fill="" p-id="10990"></path><path d="M0 687.821496h1023.734319" fill="" p-id="10991"></path><path d="M0 703.817344h1023.734319" fill="" p-id="10992"></path><path d="M0 719.813193h1023.734319" fill="" p-id="10993"></path><path d="M0 735.809042h1023.734319" fill="" p-id="10994"></path><path d="M0 751.80489h1023.734319" fill="" p-id="10995"></path><path d="M0 767.800739h1023.734319" fill="" p-id="10996"></path><path d="M0 783.796588h1023.734319" fill="" p-id="10997"></path><path d="M0 799.792437h1023.734319" fill="" p-id="10998"></path><path d="M0 815.788285h1023.734319" fill="" p-id="10999"></path><path d="M0 831.784134h1023.734319" fill="" p-id="11000"></path><path d="M0 847.779983h1023.734319" fill="" p-id="11001"></path><path d="M0 863.775832h1023.734319" fill="" p-id="11002"></path><path d="M0 879.77168h1023.734319" fill="" p-id="11003"></path><path d="M0 895.767529h1023.734319" fill="" p-id="11004"></path><path d="M0 911.763378h1023.734319" fill="" p-id="11005"></path><path d="M0 927.759227h1023.734319" fill="" p-id="11006"></path><path d="M0 943.755075h1023.734319" fill="" p-id="11007"></path><path d="M0 959.750924h1023.734319" fill="" p-id="11008"></path><path d="M0 975.746773h1023.734319" fill="" p-id="11009"></path><path d="M0 991.742621h1023.734319" fill="" p-id="11010"></path><path d="M0 1007.73847h1023.734319" fill="" p-id="11011"></path><path d="M874.57203 148.494462c-200.480971-198.348524-524.663838-198.348524-725.14481 0-198.348524 200.480971-198.348524 524.663838 0 725.14481 200.480971 200.480971 524.663838 200.480971 723.012363 0 200.480971-200.480971 200.480971-524.663838 2.132447-725.14481z m-21.327465 405.228835c0 12.796679-8.530786 21.327465-21.327465 21.327465H597.310985c-10.664232 0-21.327465 10.664232-21.327465 21.327465V830.984342c0 10.664232-10.664232 21.327465-21.327465 21.327465h-85.31086c-12.796679 0-21.327465-8.530786-21.327465-21.327465V596.378227c0-12.796679-8.530786-21.327465-21.327465-21.327465H192.08415c-12.796679 0-21.327465-8.530786-21.327465-21.327465v-85.31086c0-10.664232 10.664232-21.327465 21.327465-21.327465h234.606115c12.796679 0 21.327465-8.530786 21.327465-21.327465V191.151392c0-10.664232 10.664232-21.327465 21.327465-21.327465H554.656055c10.664232 0 21.327465 8.530786 21.327465 21.327465v234.606115c0 12.796679 8.530786 21.327465 21.327465 21.327465h234.606115c10.664232 0 21.327465 10.664232 21.327465 21.327465v85.31086z" fill="#666666" p-id="11012"></path></svg>