<?xml version="1.0" standalone="no"?><!DOCTYPE svg PUBLIC "-//W3C//DTD SVG 1.1//EN" "http://www.w3.org/Graphics/SVG/1.1/DTD/svg11.dtd"><svg t="1564038640065" class="icon" viewBox="0 0 1028 1024" version="1.1" xmlns="http://www.w3.org/2000/svg" p-id="12153" xmlns:xlink="http://www.w3.org/1999/xlink" width="128.5" height="128"><defs><style type="text/css"></style></defs><path d="M51.216278 354.053989V161.682863c0-60.915817 45.917217-110.493101 102.379524-110.493101h716.528695c56.462308 0 102.379524 49.55169 102.379524 110.493101v192.396721h51.189762V161.682863c0-89.30054-68.74785-161.682863-153.569286-161.682863H153.595802c-84.821436 0-153.569286 72.382324-153.569286 161.682863v192.396721h51.189762zM972.504021 669.741252v192.39672c0 60.915817-45.917217 110.493101-102.379524 110.493102H153.595802c-56.462308 0-102.379524-49.55169-102.379524-110.493102v-192.39672h-51.189762v192.39672c0 89.30054 68.74785 161.682863 153.569286 161.682864h716.528695c84.821436 0 153.569286-72.382324 153.569286-161.682864v-192.39672h-51.189762z" fill="#323333" p-id="12154"></path><path d="M-0.024673 486.302739h1023.79524v51.189762h-1023.79524z" fill="#323333" p-id="12155"></path></svg>