<?xml version="1.0" standalone="no"?><!DOCTYPE svg PUBLIC "-//W3C//DTD SVG 1.1//EN" "http://www.w3.org/Graphics/SVG/1.1/DTD/svg11.dtd"><svg t="1564038747170" class="icon" viewBox="0 0 1024 1024" version="1.1" xmlns="http://www.w3.org/2000/svg" p-id="18082" xmlns:xlink="http://www.w3.org/1999/xlink" width="128" height="128"><defs><style type="text/css"></style></defs><path d="M633.643762 536.770952H390.159238a38.905924 38.905924 0 0 1 0-77.811848h243.484524a38.905924 38.905924 0 1 1 0 77.811848z" fill="#515151" p-id="18083"></path><path d="M511.869 765.147506a38.905924 38.905924 0 0 1-38.904924-38.905924V507.981008a38.905924 38.905924 0 0 1 77.810848 0V726.240582a38.905924 38.905924 0 0 1-38.905924 38.905924z" fill="#515151" p-id="18084"></path><path d="M511.609001 522.44098a38.905924 38.905924 0 0 1-32.419937-17.637966l-121.645762-185.969637a38.905924 38.905924 0 1 1 64.842873-42.535917l121.774762 185.969637a38.905924 38.905924 0 0 1-32.420936 60.173883z m60.952881-92.984819a38.905924 38.905924 0 0 1-32.420937-60.173882l60.692881-92.984819a38.905924 38.905924 0 0 1 64.842874 42.536917l-60.498882 92.984819a38.905924 38.905924 0 0 1-32.615936 17.636965z m18.609963 233.952543h-158.53969a38.905924 38.905924 0 1 1 0-77.810848h158.53969a38.905924 38.905924 0 1 1 0 77.810848z m225.847559 360.332297a38.905924 38.905924 0 0 1 0-77.811849A129.685747 129.685747 0 0 0 945.928152 817.021404a38.905924 38.905924 0 0 1 77.811849 0 207.496595 207.496595 0 0 1-206.719597 206.719597z m167.813672-777.855481a38.905924 38.905924 0 0 1-38.905924-38.904924A129.685747 129.685747 0 0 0 817.019404 77.813848a38.905924 38.905924 0 0 1 0-77.811848A207.496595 207.496595 0 0 1 1023.998 206.980596a38.905924 38.905924 0 0 1-39.164924 38.904924z m-945.928152 0A38.905924 38.905924 0 0 1 0 206.981596 207.496595 207.496595 0 0 1 206.978596 0.002a38.905924 38.905924 0 1 1 0 77.811848A129.685747 129.685747 0 0 0 77.811848 206.980596a38.905924 38.905924 0 0 1-38.905924 38.904924z m168.073672 777.855481A207.496595 207.496595 0 0 1 0 817.020404a38.905924 38.905924 0 0 1 77.811848 0 129.685747 129.685747 0 0 0 129.166748 129.166748 38.905924 38.905924 0 1 1 0 77.811848z" fill="#515151" p-id="18085"></path></svg>