<?xml version="1.0" standalone="no"?><!DOCTYPE svg PUBLIC "-//W3C//DTD SVG 1.1//EN" "http://www.w3.org/Graphics/SVG/1.1/DTD/svg11.dtd"><svg t="1564038705343" class="icon" viewBox="0 0 1115 1024" version="1.1" xmlns="http://www.w3.org/2000/svg" p-id="17014" xmlns:xlink="http://www.w3.org/1999/xlink" width="139.375" height="128"><defs><style type="text/css"></style></defs><path d="M1017.6 0h40.411429c1.645714 35.657143 0.365714 71.314286-5.12 106.422857-50.102857 249.6-94.171429 500.297143-142.811429 749.897143-2.742857 33.097143-31.085714 70.765714-68.022857 57.6-104.777143-28.891429-207.36-66.194286-310.857143-99.474286 5.485714-15.725714 10.788571-31.634286 16.091429-47.36 103.68 32.914286 206.628571 68.022857 310.491428 99.474286 49.554286-253.44 95.634286-507.428571 146.285714-760.685714-127.817143 141.714286-241.371429 295.68-366.262857 439.954285-48.822857 61.44-102.4 118.857143-148.845714 181.942858-23.222857 37.668571-10.788571 85.028571-13.714286 127.085714 0.731429 47.36 0.182857 94.902857-1.828571 142.445714l-45.531429 2.925714c-0.365714-55.588571-0.731429-110.994286-1.28-166.4 2.011429-47.725714-7.131429-102.948571 27.062857-142.08C541.257143 579.84 637.988571 475.428571 722.651429 361.142857c76.8-83.2 147.2-172.434286 219.062857-260.022857C652.8 261.302857 361.142857 416.914286 76.068571 583.497143c46.811429 17.371429 94.171429 33.28 141.897143 48.274286 44.434286 14.262857 88.685714 29.074286 132.754286 44.251428-4.022857 11.702857-12.068571 34.925714-16.091429 46.445714-60.891429-19.382857-121.234286-40.594286-181.76-60.891428-51.565714-16.457143-102.765714-33.828571-152.868571-54.674286V566.857143c25.417143-18.102857 52.114286-34.377143 79.36-49.554286C392.411429 345.6 704.365714 171.702857 1017.6 0z" fill="#515151" p-id="17015"></path><path d="M637.805714 545.828571c124.891429-144.274286 238.445714-298.24 366.262857-439.954285-50.651429 253.257143-96.731429 507.245714-146.285714 760.685714-103.862857-31.451429-206.811429-66.56-310.491428-99.474286-5.302857 15.725714-10.605714 31.634286-16.091429 47.36 103.497143 33.28 206.08 70.582857 310.857143 99.474286 36.937143 13.165714 65.28-24.502857 68.022857-57.6 48.64-249.6 92.708571-500.297143 142.811429-749.897143-0.914286 12.8-2.56 38.217143-3.291429 51.017143C1071.725714 147.931429 1093.668571 138.24 1115.428571 128v44.8c-10.788571 40.228571-22.857143 80.274286-30.72 121.234286C1041.554286 537.6 995.84 780.617143 951.771429 1024h-11.154286c-153.6-60.708571-310.125714-113.371429-465.371429-169.142857 2.925714-42.057143-9.508571-89.417143 13.714286-127.085714 46.445714-63.085714 100.022857-120.502857 148.845714-181.942858z" fill="#515151" p-id="17016"></path><path d="M217.965714 631.771429c169.874286-87.04 326.765714-200.594286 504.685715-270.628572C637.988571 475.428571 541.257143 579.84 453.668571 691.748571c-34.194286 39.131429-25.051429 94.354286-27.062857 142.08-114.468571-36.571429-227.84-76.617143-339.382857-121.051428 21.76-17.005714 43.702857-34.194286 65.645714-51.2 60.525714 20.297143 120.868571 41.508571 181.76 60.891428 4.022857-11.52 12.068571-34.742857 16.091429-46.445714-44.068571-15.177143-88.32-29.988571-132.754286-44.251428z" fill="#515151" p-id="17017"></path></svg>