<?xml version="1.0" standalone="no"?><!DOCTYPE svg PUBLIC "-//W3C//DTD SVG 1.1//EN" "http://www.w3.org/Graphics/SVG/1.1/DTD/svg11.dtd"><svg t="1564098994365" class="icon" viewBox="0 0 1024 1024" version="1.1" xmlns="http://www.w3.org/2000/svg" p-id="2197" xmlns:xlink="http://www.w3.org/1999/xlink" width="128" height="128"><defs><style type="text/css"></style></defs><path d="M825.429 766.28L543.52 508.741l281.974-257.562a25.023 25.023 0 0 0 7.411-17.765 25.022 25.022 0 0 0-7.411-17.764c-9.853-9.837-25.811-9.837-35.664 0L489.762 489.686c-5.224 5.202-7.5 12.225-7.151 19.079-0.348 6.802 1.861 13.764 7.151 19.055l300.091 274.055a25.187 25.187 0 0 0 24.768 7.466 25.191 25.191 0 0 0 10.808-43.061z m0 0" fill="#2c2c2c" p-id="2198"></path><path d="M807.633 204.897c7.67 0 14.864 2.95 20.33 8.369a28.326 28.326 0 0 1 8.423 20.268 28.35 28.35 0 0 1-8.574 20.202L548.617 508.741l279.214 255.222c5.419 5.419 8.434 12.574 8.434 20.203 0 7.632-2.949 14.783-8.345 20.202-5.423 5.419-12.662 8.345-20.291 8.345-7.628 0-14.849-3.012-20.14-8.302L487.293 530.203a27.851 27.851 0 0 1-8.174-21.33c-0.411-8.156 2.601-16.043 8.302-21.722l299.94-273.884c5.419-5.354 12.641-8.37 20.272-8.37z m0 600.947a21.74 21.74 0 0 0 21.803-21.764 21.797 21.797 0 0 0-6.35-15.241L538.427 508.741 823.022 248.71a21.449 21.449 0 0 0 0-30.634 21.81 21.81 0 0 0-30.913 0.132L492.146 492.093a21.96 21.96 0 0 0-6.156 16.757 21.443 21.443 0 0 0 6.028 16.407l300.219 274.168c4.097 4.12 9.563 6.419 15.396 6.419z m0 0" fill="#2c2c2c" p-id="2199"></path><path d="M195.815 766.28a25.19 25.19 0 0 0-7.481 24.764 25.199 25.199 0 0 0 18.284 18.3 25.191 25.191 0 0 0 24.771-7.47l300.088-274.055c5.291-5.291 7.501-12.253 7.155-19.055 0.345-6.85-1.93-13.877-7.155-19.079L231.409 215.65c-9.849-9.837-25.807-9.837-35.661 0a25.003 25.003 0 0 0 0 35.529L477.72 508.741 195.815 766.28z m0 0" fill="#2c2c2c" p-id="2200"></path><path d="M213.609 204.897c7.633 0 14.849 3.016 20.272 8.365l299.937 273.885c5.706 5.682 8.713 13.569 8.302 21.725a27.84 27.84 0 0 1-8.174 21.33L233.75 804.41c-5.291 5.291-12.508 8.302-20.14 8.302-7.628 0-14.868-2.926-20.287-8.345-5.395-5.419-8.345-12.57-8.345-20.202 0-7.629 3.016-14.784 8.43-20.203L472.627 508.74 193.431 253.736a28.33 28.33 0 0 1-8.578-20.206 28.354 28.354 0 0 1 8.423-20.268c5.465-5.415 12.663-8.365 20.333-8.365z m0 600.943c5.834 0 11.299-2.294 15.396-6.414l300.216-274.168a21.45 21.45 0 0 0 6.031-16.407 21.968 21.968 0 0 0-6.159-16.757l-299.96-273.885a21.81 21.81 0 0 0-30.912-0.132 21.446 21.446 0 0 0 0 30.634l284.594 260.031-284.66 260.096a21.779 21.779 0 0 0-6.349 15.237 21.72 21.72 0 0 0 6.383 15.411 21.72 21.72 0 0 0 15.42 6.354z m0 0" fill="#2c2c2c" p-id="2201"></path></svg>