<?xml version="1.0" standalone="no"?><!DOCTYPE svg PUBLIC "-//W3C//DTD SVG 1.1//EN" "http://www.w3.org/Graphics/SVG/1.1/DTD/svg11.dtd"><svg t="1563966124685" class="icon" viewBox="0 0 1024 1024" version="1.1" xmlns="http://www.w3.org/2000/svg" p-id="21774" xmlns:xlink="http://www.w3.org/1999/xlink" width="128" height="128"><defs><style type="text/css"></style></defs><path d="M660.942257 23.059518C594.383555 5.139868 527.824853-5.099933 458.7062 2.579918c-127.997504 15.3597-238.075358 63.998752-325.11366 163.836805-48.639052 56.318902-46.079101 138.237304 5.1199 186.876356 61.438802 58.878852 156.156955 53.758952 209.915907-15.359701 33.279351-40.959201 61.438802-84.478353 97.278103-122.877604 69.118652-79.358453 145.917155-148.477105 253.435058-171.516655-15.3597-12.79975-28.159451-17.919651-38.399251-20.479601z" fill="#EBCD00" p-id="21775"></path><path d="M991.175817 389.13238c-23.039551-110.077853-76.798502-204.796006-168.956705-273.914659-40.959201-30.719401-89.598253-33.279351-138.237304-5.1199-28.159451 12.79975-46.079101 33.279351-58.878852 61.438802-25.599501 48.639052-17.919651 107.517903 20.4796 148.477105 17.919651 20.479601 38.399251 33.279351 58.878852 51.199001 46.079101 35.839301 92.158203 71.678602 135.677355 112.637804 58.878852 58.878852 107.517903 125.437554 125.437554 212.475857 20.479601-46.079101 30.719401-89.598253 35.839301-133.117405 7.67985-58.878852 7.67985-115.197754-10.239801-174.076605z m-127.997504-186.876356c-2.55995-2.55995-5.1199-2.55995-7.67985-5.1199 2.55995 0 5.1199 2.55995 7.67985 5.1199z" fill="#01C434" p-id="21776"></path><path d="M335.828597 660.487089c-33.279351-25.599501-66.558702-48.639052-97.278103-74.238553-89.598253-74.238552-168.956705-153.597005-197.116157-273.914659-7.67985 5.1199-7.67985 12.79975-10.2398 17.919651-17.919651 48.639052-28.159451 102.398003-30.719401 153.597005-2.55995 58.878852 5.1199 117.757704 25.599501 171.516655 28.159451 94.718153 79.358453 174.076606 158.716905 232.955458 46.079101 33.279351 107.517903 28.159451 151.037055-5.1199 7.67985-2.55995 12.79975-10.2398 20.4796-15.359701 58.878852-61.438802 48.639052-153.597005-20.4796-207.355956z m-322.553711-204.796007c-2.55995 0-2.55995 0 0 0-2.55995 0-2.55995 0 0 0zM184.791542 691.206489l12.79975 12.799751c-5.1199-2.55995-10.2398-7.67985-12.79975-12.799751z" fill="#1FA0EA" p-id="21777"></path><path d="M824.779062 622.087837c-61.438802-23.039551-122.877604-2.55995-163.836805 51.199002-33.279351 40.959201-61.438802 84.478353-97.278103 122.877604-69.118652 76.798502-143.357205 145.917155-250.875108 166.396755 5.1199 7.67985 12.79975 7.67985 17.91965 10.2398 135.677354 46.079101 266.234808 38.399251 396.792263-20.4796 61.438802-28.159451 112.637804-66.558702 156.156955-117.757704 58.878852-71.678602 30.719401-179.196506-58.878852-212.475857z" fill="#DE3024" p-id="21778"></path></svg>