<?xml version="1.0" standalone="no"?><!DOCTYPE svg PUBLIC "-//W3C//DTD SVG 1.1//EN" "http://www.w3.org/Graphics/SVG/1.1/DTD/svg11.dtd"><svg t="1563965212578" class="icon" viewBox="0 0 1094 1024" version="1.1" xmlns="http://www.w3.org/2000/svg" p-id="15688" xmlns:xlink="http://www.w3.org/1999/xlink" width="136.75" height="128"><defs><style type="text/css"></style></defs><path d="M602.359016 625.903994v-44.714805a207.980637 207.980637 0 0 0 38.41549-19.311012L740.221057 444.05002V296.997176l-0.722872-8.881h-21.066559A55.970956 55.970956 0 0 0 671.238403 314.139572V115.349738a38.518758 38.518758 0 0 0-38.415491-38.41549 38.105688 38.105688 0 0 0-30.050826 14.767245V57.106898a38.41549 38.41549 0 1 0-76.830981 0v10.326745a38.312223 38.312223 0 0 0-68.466317 23.648245v49.465107a38.00242 38.00242 0 0 0-30.050827-14.870513 38.518758 38.518758 0 0 0-38.41549 38.415491v325.912061a94.076644 94.076644 0 0 0 36.350141 74.559096v61.340864z" fill="#FFFFFF" p-id="15689"></path><path d="M452.311416 624.561517h-41.306979v-55.351352a109.566761 109.566761 0 0 1-36.350141-81.994352V282.539734h41.306979v204.676079A68.672852 68.672852 0 0 0 444.05002 542.876967l8.261396 6.196046zM620.224284 624.561517h-41.306979v-65.987899l15.696652-3.820895a157.069786 157.069786 0 0 0 32.012909-15.490117l90.255748-107.294877v-61.960468l-1.549012-0.516337 1.549012-16.212989V310.835014a30.980234 30.980234 0 0 0-27.159338 29.94756v69.395724l-0.722873 17.452198-41.306978-0.826139v-144.574426h30.980234a71.461073 71.461073 0 0 1 41.306978-13.218233h36.453409v1.549012h1.135942V289.14885l1.239209 19.41428h-1.342477v30.980234h1.23921l-1.23921 16.419524v91.494958l-104.196853 123.920936-2.684954 1.755546a251.97257 251.97257 0 0 1-30.980234 16.729327z" fill="#282D33" p-id="15690"></path><path d="M330.868899 618.158935h313.210165v405.63453H330.868899z" fill="#34CA9D" p-id="15691"></path><path d="M483.29165 283.675676h-41.306979v-121.855587a13.011698 13.011698 0 1 0-26.023396 0v121.855587h-41.306979v-121.855587a54.318677 54.318677 0 0 1 108.637354 0z" fill="#282D33" p-id="15692"></path><path d="M551.757967 283.675676h-41.306979V88.810004a13.011698 13.011698 0 0 0-26.023396 0v194.865672h-41.306979V88.810004a54.318677 54.318677 0 1 1 108.637354 0z" fill="#282D33" p-id="15693"></path><path d="M620.224284 283.675676h-41.306979V54.318677a13.011698 13.011698 0 1 0-26.023396 0v229.356999h-41.306979V54.318677a54.318677 54.318677 0 0 1 108.637354 0z" fill="#282D33" p-id="15694"></path><path d="M688.690601 283.675676h-41.306979V112.561517a13.011698 13.011698 0 1 0-26.023396 0v171.114159h-41.306979V112.561517a54.318677 54.318677 0 1 1 108.637354 0z" fill="#282D33" p-id="15695"></path><path d="M157.069786 1023.793465v-13.73457a206.534893 206.534893 0 0 1-38.518757-19.311013L19.104478 872.919726V725.866882H18.58814l0.82614-8.881001H41.306979A55.970956 55.970956 0 0 1 88.293667 743.525615V544.219443a38.518758 38.518758 0 0 1 38.622025-38.208955 38.105688 38.105688 0 0 1 30.050827 14.767245v-34.80113a38.41549 38.41549 0 1 1 76.83098 0v10.326745a38.312223 38.312223 0 0 1 68.466317 23.544978v49.465107a38.312223 38.312223 0 0 1 68.466317 23.648245V919.080274a94.283179 94.283179 0 0 1-36.246874 74.559097v30.360629z" fill="#FFFFFF" p-id="15696"></path><path d="M348.321097 1022.347721h-41.306978v-44.301735l8.364663-6.196047a69.189189 69.189189 0 0 0 27.985478-55.764421V711.409439h41.306978v204.676079a109.876563 109.876563 0 0 1-36.350141 81.994353zM154.90117 1023.793465l-4.4405-1.445744h-11.359419v-4.4405a251.97257 251.97257 0 0 1-30.980234-16.729327l-2.684954-1.755546L1.239209 875.914482V737.123033H0l1.239209-22.305768v-14.457442H2.065349v-2.065349h36.866478a71.254538 71.254538 0 0 1 41.306979 13.218233h30.980234v144.574425l-41.306979 0.826139-0.722872-16.522791v-70.325131a30.980234 30.980234 0 0 0-27.056071-30.360629v41.306978l2.478419 16.006454-2.478419 0.82614v62.786608l90.255748 107.294877A153.971763 153.971763 0 0 0 165.227914 983.622428l15.696652 3.820896V1022.347721H154.90117z" fill="#282D33" p-id="15697"></path><path d="M384.671238 712.545381h-41.306978V590.689794a13.011698 13.011698 0 1 0-26.023397 0V712.545381h-41.306978V590.689794a54.318677 54.318677 0 0 1 108.637353 0z" fill="#282D33" p-id="15698"></path><path d="M316.204921 712.545381h-41.306978V517.67971a13.011698 13.011698 0 1 0-26.023397 0V712.545381h-41.306978V517.67971a54.318677 54.318677 0 0 1 108.637353 0z" fill="#282D33" p-id="15699"></path><path d="M247.841872 712.545381h-41.306979V483.188382a13.011698 13.011698 0 0 0-26.023396 0V712.545381h-41.306979V483.188382a54.318677 54.318677 0 1 1 108.637354 0z" fill="#282D33" p-id="15700"></path><path d="M179.272287 712.545381h-41.306978V541.431222a13.011698 13.011698 0 0 0-26.023397 0V712.545381h-41.306979V541.431222a54.318677 54.318677 0 0 1 108.637354 0z" fill="#282D33" p-id="15701"></path><path d="M866.104074 946.033078v-44.714805a210.149254 210.149254 0 0 1-38.518757-19.311012L728.138766 764.179104V617.126261l0.722872-8.984268h21.582896a56.280758 56.280758 0 0 1 47.399758 26.229931V435.478822A38.518758 38.518758 0 0 1 836.466317 397.063332a38.105688 38.105688 0 0 1 30.050827 14.767245v-34.594595a38.41549 38.41549 0 0 1 76.83098 0v10.326745a37.899153 37.899153 0 0 1 30.050827-14.767245 38.41549 38.41549 0 0 1 38.41549 38.41549v49.36184a38.312223 38.312223 0 0 1 68.466317 23.648245v325.912061a94.076644 94.076644 0 0 1-36.350141 74.559097v61.340863z" fill="#FFFFFF" p-id="15702"></path><path d="M1057.458653 944.690601h-41.306979v-75.488503l8.261396-6.196047a68.672852 68.672852 0 0 0 28.088745-55.661154V602.668818h41.306979v204.676079a109.773296 109.773296 0 0 1-36.350141 81.994353zM889.545785 944.690601h-41.306979v-35.317467a251.97257 251.97257 0 0 1-30.980234-16.729326l-2.684954-1.755547-104.196853-123.920935v-91.185156l-1.445744-16.109721h1.445744v-30.980234h-1.23921l1.23921-22.099234v-15.490117h0.929407v-1.549012h36.763211a70.944736 70.944736 0 0 1 41.306978 13.218234h30.980234v144.574425l-41.306978 0.826139-0.619605-16.626059V660.911658a30.980234 30.980234 0 0 0-27.056071-30.360629v42.236385l1.135942 16.006454h-1.135942v61.960468l90.255748 107.294877a156.553449 156.553449 0 0 0 31.909641 15.490117l15.79992 3.820896z" fill="#282D33" p-id="15703"></path><path d="M762.32029 938.288019h313.210166v85.505446H762.32029z" fill="#F8C44F" p-id="15704"></path><path d="M1093.808794 603.80476h-41.306979v-121.855587a13.011698 13.011698 0 1 0-26.023396 0v121.855587h-41.306979v-121.855587a54.318677 54.318677 0 0 1 108.637354 0z" fill="#282D33" p-id="15705"></path><path d="M1025.342477 603.80476h-41.306979V408.939088a13.011698 13.011698 0 0 0-26.023396 0v194.865672h-41.306979V408.939088a54.318677 54.318677 0 1 1 108.637354 0z" fill="#282D33" p-id="15706"></path><path d="M956.772892 603.80476h-41.306978V374.447761a13.011698 13.011698 0 1 0-25.920129 0v229.356999h-41.306979V374.447761a54.318677 54.318677 0 1 1 108.534086 0z" fill="#282D33" p-id="15707"></path><path d="M888.10004 603.80476h-41.306978V432.690601a13.011698 13.011698 0 1 0-25.920129 0v171.114159h-41.306979V432.690601a54.318677 54.318677 0 1 1 108.534086 0z" fill="#282D33" p-id="15708"></path></svg>