<?xml version="1.0" standalone="no"?><!DOCTYPE svg PUBLIC "-//W3C//DTD SVG 1.1//EN" "http://www.w3.org/Graphics/SVG/1.1/DTD/svg11.dtd"><svg t="1563964786603" class="icon" viewBox="0 0 1024 1024" version="1.1" xmlns="http://www.w3.org/2000/svg" p-id="5631" xmlns:xlink="http://www.w3.org/1999/xlink" width="128" height="128"><defs><style type="text/css"></style></defs><path d="M619.1104 841.9328c0-84.1728 45.0048-159.232 112.5376-197.9392-45.056-25.088-94.5152-40.96-146.2784-52.3264 130.5088-38.7072 225.024-159.3344 225.024-295.8336C810.3936 127.3856 670.9248 0 493.056 0 315.2896 0 175.8208 127.4368 178.0224 295.8336c0 136.4992 94.5152 257.1264 225.024 295.8336-211.5584 38.656-373.6064 204.8-402.8416 409.6h684.1856a226.7136 226.7136 0 0 1-65.28-159.3344zM360.2944 414.208s54.016 22.7328 137.2672 22.7328c83.3024 0 137.3184-22.7328 137.3184-22.7328-38.2976 50.0736-87.808 65.9968-137.3184 65.9968-49.5104 0-99.0208-18.2272-137.2672-66.048z m483.84 245.76c-99.0208 0-180.0192 81.92-180.0192 182.016 0 100.1472 80.9984 182.0672 180.0704 182.0672C943.2064 1024 1024.2048 942.08 1024.2048 841.9328c0-100.096-80.9984-182.016-180.0192-182.016z m90.0608 204.8h-67.5328v68.2496c0 13.6704-9.0112 22.784-22.528 22.784-13.4656 0-22.4768-9.1136-22.4768-22.784V864.768h-67.5328c-13.4656 0-22.528-9.1136-22.528-22.784 0-13.6192 9.0624-22.7328 22.528-22.7328h67.5328v-68.2496c0-13.6704 9.0112-22.784 22.528-22.784 13.4656 0 22.528 9.1136 22.528 22.784V819.2h67.4816c13.4656 0 22.528 9.1136 22.528 22.7328 0 13.6704-11.264 22.784-22.528 22.784z" fill="#38A4F9" p-id="5632"></path></svg>