<?xml version="1.0" standalone="no"?><!DOCTYPE svg PUBLIC "-//W3C//DTD SVG 1.1//EN" "http://www.w3.org/Graphics/SVG/1.1/DTD/svg11.dtd"><svg t="1563965116725" class="icon" viewBox="0 0 1024 1024" version="1.1" xmlns="http://www.w3.org/2000/svg" p-id="12608" xmlns:xlink="http://www.w3.org/1999/xlink" width="128" height="128"><defs><style type="text/css"></style></defs><path d="M359.3 523.1c12.5-6.9 28.1-4 37.3 7l29.3 34.8 34.1-26.6c11.6-9 28-8.4 38.8 1.6l154 142.1 52.7 0.4c10.7-24.8 35.3-42.1 64-42.1 14.8 0 28.5 4.6 39.8 12.5L958 549.1c1-12.3 1.5-24.6 1.5-37.1 0-247.1-200.4-447.5-447.5-447.5-171.8 0-320.9 96.8-395.9 238.8l209.3 238.4 33.9-18.6z" fill="#EA343C" p-id="12609"></path><path d="M838.9 705.2c0.1 1.6 0.2 3.1 0.2 4.7 0 38.5-31.2 69.7-69.7 69.7-26.7 0-50-15.1-61.6-37.2l-67.1-0.5c-7.5-0.1-14.6-2.9-20.1-8L476.9 601.1l-36.8 28.7c-12.7 9.9-31 8-41.4-4.3l-32.1-38.1-33.6 18.4c-12.3 6.8-27.7 4-37-6.5L89.6 364c-16.2 46.3-25.1 96.1-25.1 148 0 247.1 200.4 447.5 447.5 447.5 205.3 0 378.4-138.3 431-326.8l-104.1 72.5z" fill="#EA343C" p-id="12610"></path><path d="M333.1 605.9l33.6-18.4 32.1 38.1c10.4 12.3 28.7 14.2 41.4 4.3l36.8-28.7L620.7 734c5.5 5.1 12.7 7.9 20.1 8l67.1 0.5c11.7 22.1 34.9 37.2 61.6 37.2 38.5 0 69.7-31.2 69.7-69.7 0-1.6-0.1-3.2-0.2-4.7l104-72.6c7.5-26.9 12.6-54.8 14.9-83.5L809.2 652.8c-11.3-7.9-25-12.5-39.8-12.5-28.7 0-53.3 17.3-64 42.1l-52.7-0.4-153.8-142.2c-10.8-10-27.2-10.7-38.8-1.6L426 564.8 396.6 530c-9.2-10.9-24.8-13.8-37.3-7l-34 18.6-209.2-238.3C105.8 322.7 96.9 343 89.6 364l206.5 235.4c9.3 10.5 24.6 13.2 37 6.5z" fill="#FFFFFF" p-id="12611"></path></svg>