<?xml version="1.0" standalone="no"?><!DOCTYPE svg PUBLIC "-//W3C//DTD SVG 1.1//EN" "http://www.w3.org/Graphics/SVG/1.1/DTD/svg11.dtd"><svg t="1563964889053" class="icon" viewBox="0 0 1024 1024" version="1.1" xmlns="http://www.w3.org/2000/svg" p-id="6448" xmlns:xlink="http://www.w3.org/1999/xlink" width="128" height="128"><defs><style type="text/css"></style></defs><path d="M617.650794 402.737213s-124.613757-55.985891-223.943563 5.41799c-3.611993 28.895944 0 102.941799 115.583774 102.941799 144.479718 0 108.359788-108.359788 108.359789-108.359789zM807.280423 585.142857c-3.611993 59.597884-39.731922 149.897707-223.943562 99.329806h-144.479718c-189.62963 52.373898-222.137566-45.149912-225.749559-102.941799l-16.253968 92.10582 3.611992 113.777778 28.895944 36.11993 57.791887 10.835978s57.791887-10.835979 59.597884-14.447971c1.805996-3.611993 57.791887-102.941799 57.791887-102.941799l36.119929-25.283951 142.673722-5.417989 50.567901 45.149911 52.373898 83.075838s61.40388 12.641975 65.015873 12.641975c3.611993 0 59.597884-25.283951 59.597883-25.28395s14.447972-54.179894 14.447972-59.597884-5.417989-158.92769-5.417989-158.927689-5.417989 3.611993-12.641976 1.805996z" fill="#C0EAFF" p-id="6449"></path><path d="M845.206349 745.876543l-18.059965-182.405644-1.805996-19.865961c-14.447972-88.493827-113.777778-157.121693-245.61552-173.375661v-19.865961c0-28.895944-19.865961-54.179894-46.955909-61.40388 0-21.671958 5.417989-65.015873 48.761905-81.269842 9.029982-3.611993 14.447972-14.447972 10.835979-23.477954-3.611993-9.029982-14.447972-14.447972-23.477954-10.835979-57.791887 21.671958-72.239859 79.463845-72.239859 117.389771-25.283951 9.029982-45.149912 32.507937-45.149912 61.40388V393.707231c0 1.805996 1.805996 1.805996 1.805997 3.611993l1.805996 1.805996s1.805996 1.805996 3.611993 1.805997 1.805996 1.805996 3.611993 1.805996h46.955908c32.507937 0 65.015873 3.611993 93.911817 9.029983V433.439153c0 30.70194-25.283951 57.791887-57.791887 57.791888h-74.045856c-30.70194 0-57.791887-25.283951-57.791887-57.791888v-36.119929-3.611993-1.805996-1.805997-1.805996c-3.611993-7.223986-12.641975-12.641975-19.865961-10.835979-39.731922 9.029982-75.851852 23.477954-106.553792 43.343915-9.029982 5.417989-10.835979 16.253968-5.417989 25.283951 3.611993 5.417989 9.029982 9.029982 16.253968 9.029982 3.611993 0 7.223986 0 9.029982-1.805996 21.671958-12.641975 45.149912-23.477954 74.045856-32.507937v12.641975c0 52.373898 41.537919 93.911817 93.911816 93.911817h74.045856c52.373898 0 93.911817-41.537919 93.911816-93.911817v-12.641975c81.269841 25.283951 139.061728 72.239859 148.091711 128.22575l19.865961 198.659612c1.805996 19.865961-5.417989 36.119929-18.059965 48.761904-14.447972 12.641975-34.313933 19.865961-57.791887 18.059965-32.507937-5.417989-52.373898-18.059965-63.209876-37.925926l-18.059965-37.925926c-14.447972-28.895944-27.089947-54.179894-65.015873-65.015873-48.761905-12.641975-101.135802-12.641975-149.897707 0-37.925926 9.029982-50.567901 36.119929-66.82187 65.015873l-18.059964 34.313933c-10.835979 19.865961-32.507937 32.507937-63.209877 37.925926-23.477954 1.805996-45.149912-3.611993-59.597883-18.059965-12.641975-12.641975-18.059965-28.895944-18.059965-48.761904l18.059965-180.599648 1.805996-18.059964c3.611993-19.865961 12.641975-39.731922 28.895944-57.791887 7.223986-7.223986 5.417989-19.865961-1.805997-25.283951-7.223986-7.223986-19.865961-5.417989-25.283951 1.805996-19.865961 23.477954-32.507937 48.761905-36.119929 75.851852L176.987654 745.876543c-1.805996 30.70194 9.029982 57.791887 28.895944 77.657849 21.671958 21.671958 52.373898 30.70194 88.493827 27.089947 41.537919-7.223986 72.239859-27.089947 88.493827-57.791888l18.059965-37.925925c14.447972-27.089947 21.671958-39.731922 41.537919-45.149912 43.343915-10.835979 90.299824-10.835979 133.643739 0 21.671958 5.417989 28.895944 18.059965 43.343915 46.955908l18.059965 36.119929c16.253968 28.895944 46.955908 48.761905 90.299823 55.985891h14.447972c28.895944 0 54.179894-9.029982 74.045856-27.089947 21.671958-18.059965 32.507937-45.149912 28.895943-75.851852zM512.902998 364.811287h-23.477954v-16.253968c0-14.447972 12.641975-27.089947 27.089947-27.089947s27.089947 12.641975 27.089947 27.089947v16.253968h-30.70194z" fill="#1F87DD" p-id="6450"></path><path d="M285.347443 594.17284h34.313933v34.313932c0 10.835979 7.223986 18.059965 18.059964 18.059965s18.059965-7.223986 18.059965-18.059965v-34.313932h34.313933c10.835979 0 18.059965-7.223986 18.059965-18.059965s-7.223986-18.059965-18.059965-18.059965h-34.313933V523.738977c0-10.835979-7.223986-18.059965-18.059965-18.059965s-18.059965 7.223986-18.059964 18.059965v34.313933h-34.313933c-10.835979 0-18.059965 7.223986-18.059965 18.059965s7.223986 18.059965 18.059965 18.059965zM662.800705 610.426808c3.611993 0 5.417989 0 9.029983-1.805997 9.029982-5.417989 12.641975-16.253968 7.223986-25.28395l-14.447972-25.283951c-5.417989-9.029982-16.253968-12.641975-25.283951-7.223986-9.029982 5.417989-12.641975 16.253968-7.223986 25.283951l14.447972 25.28395c3.611993 5.417989 9.029982 9.029982 16.253968 9.029983zM742.26455 588.75485c3.611993 0 5.417989 0 9.029983-1.805996 9.029982-5.417989 12.641975-16.253968 7.223986-25.283951l-14.447972-25.283951c-5.417989-9.029982-16.253968-12.641975-25.283951-7.223986-9.029982 5.417989-12.641975 16.253968-7.223986 25.283951l14.447972 25.283951c3.611993 5.417989 9.029982 9.029982 16.253968 9.029982z" fill="#1F87DD" p-id="6451"></path></svg>