<?xml version="1.0" standalone="no"?><!DOCTYPE svg PUBLIC "-//W3C//DTD SVG 1.1//EN" "http://www.w3.org/Graphics/SVG/1.1/DTD/svg11.dtd"><svg t="1563965078751" class="icon" viewBox="0 0 1024 1024" version="1.1" xmlns="http://www.w3.org/2000/svg" p-id="11631" xmlns:xlink="http://www.w3.org/1999/xlink" width="128" height="128"><defs><style type="text/css"></style></defs><path d="M353.621333 922.965333c-12.970667 0-34.133333-20.48-34.133333-34.133333v-89.429333c0-16.384 17.749333-34.133333 34.133333-34.133334h127.658667V689.493333h-2.048c-74.410667 0-230.741333-92.16-230.741333-195.242666v-2.048h-2.048c-84.650667-5.461333-141.312-62.122667-141.312-140.629334V244.394667c0-33.450667 16.384-69.632 51.882666-69.632h91.477334v-19.797334c0-34.816 17.066667-51.882667 51.882666-51.882666h430.08c34.816 0 51.882667 17.066667 51.882667 51.882666v19.797334h73.728c34.133333 0 69.632 37.546667 69.632 73.045333v104.448c0 79.189333-56.661333 135.850667-141.312 141.312h-2.048v2.048c0 108.544-178.858667 195.242667-249.173333 195.242667h-2.048v75.776h127.658666c15.018667 0 34.133333 16.384 34.133334 34.133333v89.429333c0 12.970667-20.48 34.133333-34.133334 34.133334H353.621333z m36.181334-107.178666c-8.192 0-19.797333 11.605333-19.797334 19.797333v18.432l0.682667 0.682667c0.682667 0.682667 12.970667 17.749333 25.258667 17.749333 23.210667 0 68.949333 0 114.005333 0.682667 45.056 0 90.112 0.682667 113.322667 0.682666 12.288 0 19.114667-18.432 19.797333-19.114666v-18.432c0-8.192-11.605333-19.797333-19.797333-19.797334H389.802667zM318.122667 152.917333c-8.192 0-19.797333 11.605333-19.797334 19.797334v268.970666c0 141.994667 111.957333 192.512 207.530667 192.512 155.648 0 225.962667-99.669333 225.962667-192.512V172.714667c0-7.509333-6.144-19.797333-19.797334-19.797334H318.122667z m-143.36 71.68c-8.192 0-19.797333 11.605333-19.797334 19.797334v107.178666c0 50.517333 34.133333 84.650667 91.477334 91.477334h2.048v-218.453334H174.762667zM781.653333 443.733333h2.048c57.344-6.826667 91.477333-40.96 91.477334-91.477333V244.394667c0-8.192-11.605333-19.797333-19.797334-19.797334h-73.728V443.733333z" fill="#1D9DF7" p-id="11632"></path><path d="M356.352 802.133333h308.565333v90.112H356.352zM284.672 134.485333V484.693333C284.672 580.266667 361.813333 657.408 457.386667 657.408h116.053333c95.573333 0 172.714667-77.141333 172.714667-172.714667V134.485333H284.672z m368.64 190.464l-79.189333 56.661334 30.037333 92.16c1.365333 4.778667 0 9.557333-4.096 12.288-2.048 1.365333-4.096 2.048-6.826667 2.048-2.048 0-4.778667-0.682667-6.826666-2.048l-79.189334-56.661334-79.189333 56.661334c-4.096 2.730667-9.557333 2.730667-12.970667 0-4.096-2.730667-5.461333-8.192-4.096-12.288l30.037334-92.16L361.813333 324.949333c-4.096-2.730667-5.461333-8.192-4.096-12.288 1.365333-4.778667 5.461333-7.509333 10.922667-7.509333h97.621333l30.037334-92.16c1.365333-4.778667 5.461333-7.509333 10.922666-7.509333 4.778667 0 8.874667 3.413333 10.922667 7.509333l30.037333 92.16h97.621334c4.778667 0 8.874667 3.413333 10.922666 7.509333 2.048 4.096 0 9.557333-3.413333 12.288z" fill="#1D9DF7" p-id="11633"></path></svg>