<?xml version="1.0" standalone="no"?><!DOCTYPE svg PUBLIC "-//W3C//DTD SVG 1.1//EN" "http://www.w3.org/Graphics/SVG/1.1/DTD/svg11.dtd"><svg t="1563965061505" class="icon" viewBox="0 0 1024 1024" version="1.1" xmlns="http://www.w3.org/2000/svg" p-id="11388" xmlns:xlink="http://www.w3.org/1999/xlink" width="128" height="128"><defs><style type="text/css"></style></defs><path d="M871.55 157.015H659.925L719.06 52.354a36.395 36.395 0 0 0-11.35-47.787c-15.956-9.13-34.132-2.304-45.524 13.653L584.83 157.015H418.687L341.333 18.22C329.94 0.002 311.765-4.564 295.808 4.567a36.395 36.395 0 0 0-11.35 47.787l59.136 104.66H152.448C70.528 157.015 0 229.848 0 316.29v548.437C0 951.168 70.528 1024 152.448 1024H871.55c84.18 0 152.447-70.528 152.447-159.274V314.028c0-84.181-70.528-157.013-152.447-157.013zM730.453 637.142c-4.565 2.304-22.741 13.653-50.048 29.61H678.1c-34.133 20.48-79.616 47.787-134.229 79.616-27.307 15.958-52.352 29.611-79.658 45.526-13.654 9.088-29.568 18.218-31.872 18.218h-2.262l-2.261 2.262c-4.565 6.826-13.653 9.088-25.045 9.088-31.872 0-56.875-25.003-56.875-59.136V418.689c0-34.133 25.003-61.44 56.875-61.44 9.088 0 20.48 2.304 29.568 9.13 2.304 2.262 15.957 9.089 34.133 20.48 20.48 11.35 45.525 27.307 72.832 40.96 95.573 54.614 172.927 100.096 188.885 109.227 15.914 9.088 27.306 29.568 27.306 50.048 2.262 20.48-9.13 40.96-25.045 50.048z" fill="#21B1A9" p-id="11389"></path><path d="M420.991 746.368l263.936-157.013L420.99 436.908z" fill="#21B1A9" p-id="11390"></path></svg>