<?xml version="1.0" standalone="no"?><!DOCTYPE svg PUBLIC "-//W3C//DTD SVG 1.1//EN" "http://www.w3.org/Graphics/SVG/1.1/DTD/svg11.dtd"><svg t="1563965351737" class="icon" viewBox="0 0 1024 1024" version="1.1" xmlns="http://www.w3.org/2000/svg" p-id="21565" xmlns:xlink="http://www.w3.org/1999/xlink" width="128" height="128"><defs><style type="text/css"></style></defs><path d="M529.211733 606.493867c-11.805867 0-23.253333-2.466133-34.043733-7.3344l-389.888-168.7936c-15.867733-7.214933-25.924267-22.510933-26.24-39.918934-0.315733-17.258667 9.066667-32.772267 24.4864-40.4736l0.618667-0.298666 386.013866-180.100267c22.6816-11.204267 50.734933-11.076267 73.467734 0.3328l388.629333 184.375467c15.552 7.889067 24.942933 23.598933 24.512 41.002666-0.426667 17.258667-10.4704 32.354133-26.218667 39.3856l-0.439466 0.187734-387.656534 164.612266a81.570133 81.570133 0 0 1-33.2416 7.022934zM139.8144 389.5296l376.328533 162.922667a31.36 31.36 0 0 0 25.664 0.170666l0.439467-0.187733 373.7344-158.698667-375.189333-177.9968c-8.712533-4.424533-19.464533-4.497067-28.0832-0.192l-0.618667 0.298667-372.2752 173.6832z" fill="#6196FF" p-id="21566"></path><path d="M106.666667 742.4a25.6 25.6 0 0 1-25.6-25.6V409.6a25.6 25.6 0 0 1 51.2 0v307.2a25.6 25.6 0 0 1-25.6 25.6zM526.596267 824.0384a404.992 404.992 0 0 1-70.813867-6.276267c-86.421333-15.3216-148.010667-55.598933-170.478933-72.2048A51.413333 51.413333 0 0 1 264.533333 704.375467V499.2a25.6 25.6 0 0 1 51.2 0v205.175467c28.885333 21.3504 104.759467 68.539733 209.617067 68.548266 64.256 0.004267 139.370667-17.706667 221.2736-69.930666L746.666667 503.466667a25.6 25.6 0 0 1 51.2 0v199.4752a51.029333 51.029333 0 0 1-23.7184 43.221333c-81.245867 51.805867-164.245333 77.870933-247.552 77.8752z" fill="#6196FF" p-id="21567"></path></svg>