<?xml version="1.0" standalone="no"?><!DOCTYPE svg PUBLIC "-//W3C//DTD SVG 1.1//EN" "http://www.w3.org/Graphics/SVG/1.1/DTD/svg11.dtd"><svg t="1563965232901" class="icon" viewBox="0 0 1024 1024" version="1.1" xmlns="http://www.w3.org/2000/svg" p-id="16571" xmlns:xlink="http://www.w3.org/1999/xlink" width="128" height="128"><defs><style type="text/css"></style></defs><path d="M930.909091 466.734545c0-232.145455-188.16-420.421818-420.421818-420.421818S90.181818 234.589091 90.181818 466.734545c0 136.145455 64.698182 257.163636 165.12 333.963637l0.465455 0.349091c10.472727 8.029091 254.836364 176.174545 254.836363 176.174545s244.363636-168.145455 254.836364-176.174545l0.465455-0.349091c100.189091-76.8 165.003636-197.818182 165.003636-333.963637z" fill="#32CC78" p-id="16572"></path><path d="M606.021818 328.727273c32.349091 0 58.414545-26.065455 58.414546-58.414546s-26.065455-58.414545-58.414546-58.414545c-32.349091 0-58.414545 26.065455-58.414545 58.414545 0 32.581818 26.065455 58.414545 58.414545 58.414546z m95.883637-16.407273c-33.396364 46.894545-78.312727 52.247273-126.603637 23.738182-3.258182-1.861818-17.803636-10.007273-21.061818-11.869091-77.498182-46.08-155.112727-28.043636-207.127273 44.683636-22.109091 30.952727 29.090909 60.276364 50.850909 29.672728 26.996364-37.701818 61.090909-48.407273 98.210909-36.654546-19.083636 33.163636-35.84 66.210909-59.578181 113.105455s-75.636364 84.247273-125.789091 54.923636c-36.072727-21.061818-68.654545 30.72-32.581818 51.898182 68.421818 39.796364 148.712727 15.36 189.556363-36.654546 1.396364 0.814545 2.909091 1.396364 4.538182 1.861819 33.396364 11.52 77.265455 42.589091 90.530909 53.643636 13.498182 11.054545 36.305455 67.025455 49.803636 95.069091 16.407273 34.210909 70.050909 9.192727 53.294546-25.018182-15.36-32-41.541818-95.534545-61.672727-111.825455-16.174545-12.916364-47.709091-36.887273-74.356364-50.618181 18.036364-35.025455 36.887273-69.469091 56.552727-103.68 62.952727 19.316364 123.112727-3.490909 165.934546-63.301819 22.458182-30.370909-28.741818-59.927273-50.501818-28.974545z" fill="#FFFFFF" p-id="16573"></path></svg>