<?xml version="1.0" standalone="no"?><!DOCTYPE svg PUBLIC "-//W3C//DTD SVG 1.1//EN" "http://www.w3.org/Graphics/SVG/1.1/DTD/svg11.dtd"><svg t="1563964704885" class="icon" viewBox="0 0 1024 1024" version="1.1" xmlns="http://www.w3.org/2000/svg" p-id="4592" xmlns:xlink="http://www.w3.org/1999/xlink" width="128" height="128"><defs><style type="text/css"></style></defs><path d="M512 891.969c-201.874 0-368.638-61.44-368.638-131.657 0-52.662 70.217-96.548 175.542-122.879 26.332-8.777 35.108 35.108 8.777 35.108-70.217 17.554-122.879 43.885-122.879 78.994 0 52.662 140.434 96.548 307.198 96.548 166.765 0 307.198-43.885 307.198-96.548 0-35.108-52.662-61.44-122.879-78.994-26.332 0-17.554-43.885 8.777-35.108 105.325 26.332 175.542 70.217 175.542 122.879 0 70.217-166.765 131.657-368.638 131.657zM494.445 742.757c0 0 8.777 8.777 17.555 8.777 0 0 0 0 0 0 0 0 0 0 0 0s17.555-8.777 17.555-8.777l201.874-228.204c96.548-96.548 70.217-236.981 61.44-245.759v0c-35.108-122.879-114.102-175.542-175.542-201.874-26.332-8.777-61.44-17.554-78.994-17.554 0 0-8.777 0-8.777 0 0 0-8.777 0-17.555 0-8.777 0-17.554 0-17.554 0 0 0 0 0-8.777 0-17.554 0-43.885 8.777-78.994 17.554-61.44 26.332-140.434 78.994-175.542 201.874v0c0 8.777-35.108 149.211 61.44 245.759l201.874 228.204zM512 505.776c-87.771 0-166.765-78.994-166.765-166.765 0-96.548 78.994-166.765 166.765-166.765 87.771 0 166.765 70.217 166.765 166.765 0 87.771-78.994 166.765-166.765 166.765zM512 242.463c52.662 0 96.548 43.885 96.548 96.548 0 52.662-43.885 96.548-96.548 96.548-52.662 0-96.548-43.885-96.548-96.548 0-52.662 43.885-96.548 96.548-96.548z" p-id="4593" fill="#e16531"></path></svg>