<?xml version="1.0" standalone="no"?><!DOCTYPE svg PUBLIC "-//W3C//DTD SVG 1.1//EN" "http://www.w3.org/Graphics/SVG/1.1/DTD/svg11.dtd"><svg t="1563532207581" class="icon" viewBox="0 0 1024 1024" version="1.1" xmlns="http://www.w3.org/2000/svg" p-id="3227" xmlns:xlink="http://www.w3.org/1999/xlink" width="200" height="200"><defs><style type="text/css"></style></defs><path d="M344.5 344.5H8.5V8.5h336v336z m-288-48h240v-240h-240v240z" fill="#2c2c2c" p-id="3228"></path><path d="M248.5 248.5h-144v-144h144v144z m-96-48h48v-48h-48v48z" fill="#2c2c2c" p-id="3229"></path><path d="M344.5 1016.5H8.5v-336h336v336z m-288-48h240v-240h-240v240z" fill="#2c2c2c" p-id="3230"></path><path d="M248.5 920.5h-144v-144h144v144z m-96-48h48v-48h-48v48z" fill="#2c2c2c" p-id="3231"></path><path d="M1016.5 344.5h-336V8.5h336v336z m-288-48h240v-240h-240v240z" fill="#2c2c2c" p-id="3232"></path><path d="M920.5 248.5h-144v-144h144v144z m-96-48h48v-48h-48v48z" fill="#2c2c2c" p-id="3233"></path><path d="M1016.5 1000.5h-400v-96h48v48h352zM568.5 1000.5h-112v-144h-64v-160h48v112h64v144h64z" fill="#2c2c2c" p-id="3234"></path><path d="M392.5 920.5h112v48h-112zM536.5 424.5h-224v-48h176v-128h-96V8.5h144v96h48v-96h48v144h-144v-96h-48v144h96z" fill="#2c2c2c" p-id="3235"></path><path d="M392.5 280.5h144v48h-144zM424.5 648.5h-176v-144h-160v-64h-80v-48h128v64h160v144h128z" fill="#2c2c2c" p-id="3236"></path><path d="M168.5 552.5h128v48h-128zM184.5 392.5h48v112h-48zM792.5 872.5h-240v-176h-80v-176h-80v48h-48v-96h176v176h80v176h192z" fill="#2c2c2c" p-id="3237"></path><path d="M648.5 760.5h48v112h-48zM792.5 712.5h-144v-144h48v96h48v-96h272v48h-224z" fill="#2c2c2c" p-id="3238"></path><path d="M1016.5 904.5h-128v-144h80v-240h48v288h-80v48h80zM872.5 520.5h-288v-176h48v128h240z" fill="#2c2c2c" p-id="3239"></path><path d="M680.5 392.5h192v48h-192z" fill="#2c2c2c" p-id="3240"></path><path d="M728.5 392.5h48v128h-48z" fill="#2c2c2c" p-id="3241"></path><path d="M760.5 392.5h48v128h-48zM856.5 568.5h48v128h-48zM56.5 632.5h-48v-80h112v48h-64zM1016.5 472.5h-48v-48h-48v-48h96zM744.5 760.5h48v160h-48zM392.5 40.5h144v48h-144zM648.5 632.5h144v48h-144z" fill="#2c2c2c" p-id="3242"></path></svg>