<?xml version="1.0" standalone="no"?><!DOCTYPE svg PUBLIC "-//W3C//DTD SVG 1.1//EN" "http://www.w3.org/Graphics/SVG/1.1/DTD/svg11.dtd"><svg t="1563948801681" class="icon" viewBox="0 0 1024 1024" version="1.1" xmlns="http://www.w3.org/2000/svg" p-id="11454" xmlns:xlink="http://www.w3.org/1999/xlink" width="200" height="200"><defs><style type="text/css"></style></defs><path d="M503.890298 442.414155c0.044002-0.064468 0.109494-0.13303 0.150426-0.197498-0.166799-0.808412-0.303922-1.515516-0.36532-2.02103C503.750105 440.929338 503.824807 441.673282 503.890298 442.414155L503.890298 442.414155 503.890298 442.414155zM661.20009 614.183264l0.007163-0.013303c0 0-0.092098-0.007163-0.102331-0.027629 0.020466 0.020466 0.071631 0.020466 0.071631 0.020466L661.20009 614.183264 661.20009 614.183264zM665.231917 614.688777c-0.976234-0.160659-3.167133 0.125867-4.030803-0.505513C660.671041 616.029308 661.470243 616.719017 665.231917 614.688777L665.231917 614.688777 665.231917 614.688777zM512.00307 102.396111c-226.216161 0-409.586492 183.370331-409.586492 409.579329S285.786908 921.561933 512.00307 921.561933c226.205928 0 409.579329-183.377494 409.579329-409.586492S738.208998 102.396111 512.00307 102.396111L512.00307 102.396111 512.00307 102.396111zM773.617439 262.396175c-14.110369 0.426719-23.937179 0.454348-35.275411 8.276501-4.567016 3.1569-7.66968 7.338129-13.464663 8.963139-5.201465 1.467421-10.813277 0.181125-15.969717 1.935072-18.608823 6.310729-15.659655 46.170552-40.177048 40.149419-11.519358-2.822278-19.639293-16.434298-25.435299-25.322735-5.109368-7.820106-14.410198-14.291494-8.123005-24.073278-2.867304 0.733711-5.921873-0.105401-8.741082 0.429789 3.925403-8.625448 17.10354-7.871271 19.291368-12.277628 5.457292-11.051707-15.031345-12.201903-20.827351-13.734816 6.990205-7.450692 10.529821 2.505054 17.435091 0.815575 6.632047-1.63115-3.501754-10.369162-7.478322-11.348466-1.430582-0.352017-24.789593 6.450922-11.270694-5.64558-16.687054-10.635221-33.366945-21.274536-50.058093-31.91692-2.808976 11.833513 22.212908 18.560728 30.384008 22.734794-1.269923 4.88424-8.871041 12.000312-14.690584 9.914814-5.487991-1.962701-3.263323-11.045567-11.539824-10.136871-5.91164 13.741979 12.498662 9.727549 14.208607 18.148335 1.942235 9.594519-6.962575 5.528923-10.379395 5.365194-0.819668-0.044002-7.202029-6.64842-7.54279-1.648546-0.419556 5.942339 10.174734 3.624551 10.921747 9.618055-12.334933 0.50142-18.632359-3.952009-28.678156-10.629081-11.724019-7.77508-17.73799-7.072069-32.101115-7.072069 4.293793-1.768273 10.212596-3.079128 13.885242-5.91471 2.006703-1.553379 9.877975-9.201569 10.399861-10.911514 2.221598-7.372921-0.122797-6.809079-7.17133-11.646248-6.27389-4.290723-13.875009-11.987009-21.468964-13.499455-27.526937-5.495154-8.488325 24.847921-29.381168 29.02915 0.358157 0.020466 0.740874 0.040932 1.050935 0.040932l-1.198292 0c0.058328-0.00307 0.095167-0.030699 0.146333-0.040932-4.833075-0.170892-13.891382-1.351787-17.007349 1.204431-2.198062 1.794879-2.379187 9.007141-4.840238 11.611455-4.372587 4.669346-10.891048 5.597485-16.109909 8.963139-5.091972 3.279696-16.321734 11.703553-19.314904 17.423835-11.028171 21.062711 24.844851 27.598568 38.442544 33.756825 6.139837 2.785439 24.090675 6.594185 27.438932 11.243065 4.485151 6.243191-3.867074 12.096503 5.498224 16.482393 2.990101 1.399883 9.16166 1.686409 11.734252-1.214664 4.188392-4.713348-1.699712-5.77861-2.699482-11.229762-1.949398-10.491958 1.255597-6.325056 6.529717-10.218736 10.758018-7.938809 8.331759-8.423857 4.464685-21.076014-1.794879-5.888104-8.574283-22.329565-2.614547-26.674523 7.77508-5.669116 24.352641 3.071965 30.316469 3.805676 6.939039 0.850367 10.870582 10.458189 14.652721 14.389732 2.512217 2.611477 7.000438 8.150634 11.390421 7.553023 6.965645-0.955768 4.048199-7.04444 8.092305-9.847276 10.829649-7.516184 13.68365 2.689249 18.000979 12.901845 4.061502 9.584286 7.90197 13.141298 15.133675 19.294438 3.358491 2.863211 18.072611 13.078877 16.687054 19.380396-0.945535 4.242627-17.752316 10.673084-22.25077 12.099572-16.431228 5.201465-47.249117-8.519024-50.559513 17.537422 6.376221-2.375094 24.50716-17.188474 29.943986-10.1645 2.478448 3.181459-1.962701 7.823176-0.921999 10.987239 3.102664 9.485025 10.420327 6.1777 18.090007 4.64581-0.525979 0.327458-1.061169 0.610914-1.62808 0.86674 10.485819-5.385661 9.389858-4.266164 14.205537-13.001105 1.563612-2.857071 3.904936-9.761318 6.116301-11.802814 7.614421-7.010671 8.789177-2.184759 13.505595 3.222391 1.239224 1.423419 12.904914 18.226107 8.751315 17.386996-13.571087-2.719948-26.598798-2.354628-37.859259 5.065366-6.484691 4.28356-12.618389 10.0591-20.36277 12.909008-1.860371 0.672312-15.60542 1.980097-13.977339-0.36225 2.372024-3.419889 10.536984-5.683443 13.755282-9.372461-8.925277-3.675716-16.376992 4.444219-23.390733 9.188266-7.447623 3.52222-9.174963 10.089799-15.516392 15.84385-2.768043 2.505054-8.003278 2.934842-10.714016 6.239098-2.635013 3.204995-2.969635 8.239662-5.464455 11.283997-1.750877 2.133593-6.243191 0.843204-8.071839 4.055362-2.38635 4.191462 2.180666 8.086166 1.177825 11.106965-1.829671 5.487991-12.273535 10.151197-16.287965 14.103206 0.539282-0.515746 1.068332-1.047866 1.597381-1.587148-4.027733 4.222161-9.123798 7.327896-12.263301 12.216229 1.443885 6.898107 5.990434 23.349801 4.727675 27.13501-4.188392 12.447497-12.3247-6.77224-15.615653-11.741415-11.328-17.065677-33.967626-5.64558-49.440016-4.232394-19.779486 1.809205-39.155788 27.486004-26.953885 48.323589 5.860475 9.993608 15.71082 13.860682 27.012214 11.546987 10.06217-2.054799 13.078877-16.127306 22.554692-16.390295 17.403369-0.460488 0.382717 17.062608-1.12666 23.493064-1.39272 5.952572 2.170432 6.509251 8.30106 7.983835 4.532223 1.081635 10.942213-1.942235 14.867616 0.644683 2.468215 1.63115 2.354628 10.570753 5.755074 7.754614-6.699586 5.54939-5.133927 18.703991 1.727341 23.459295 7.614421 5.27719 16.57449 0.39295 24.548092 2.420119 15.041578 3.839445 7.860015-1.147126 21.069875-9.123798 8.915044-5.369288 10.379395 1.017166 16.47216 1.040702 4.1536 0.013303 6.785543-5.965875 13.71435-4.225231 5.65172 1.423419 7.887644 5.785773 14.639418 6.792707 2.764973 0.409322 5.625114-1.040702 8.260128-0.751107 12.488429 1.385557 22.038946 9.362228 31.879058 16.57449 8.103562 5.935176 13.474896 4.733814 22.943548 7.440459 6.918573 1.976004 19.684318 11.983939 19.032472 20.773116-0.119727 1.569752-6.167466 9.471722-7.197936 13.034874 1.771343 1.224898 14.07967-1.52268 17.680684-1.784646-1.180895 1.379417-9.56689 7.27366-9.56689 4.14746 0 1.597381 5.935176 4.891404 7.372921 5.91471 4.378727-14.198374 11.56029-5.061272 20.206204-1.543146 7.352455 2.990101 16.397459 3.1569 24.233937 5.01727 6.658653 1.587148 21.328771 6.078439 26.261107 11.516288 5.935176 6.54609 1.832741 17.182334-2.560312 23.694655-5.747911 8.53642-14.410198 11.82328-17.990746 21.861914-2.832512 7.959276-0.710175 16.001439-2.328022 24.830525-2.184759 11.938913-3.938706 7.757684-11.636015 15.041578-6.468318 6.139837-0.109494 5.075599-8.915044 8.983605-8.857738 3.938706-16.649192 2.76088-22.779819 12.478196 0.245593-0.607844 0.447185-1.224898 0.618077-1.860371-2.586918 3.614317-3.880377 11.028171-5.106298 13.458523-3.092431 6.208399-7.352455 10.123568-12.239765 15.291265-1.870604 1.976004-19.089777 25.502837-20.086477 23.612791-1.276063-2.457981-14.854313 2.464121-15.502066-1.040702 0.542352 2.946099-0.12689 1.962701 3.242857 3.65525-3.120061 19.332301-11.2973 22.217001-30.281677 22.411429 1.62808 9.293667-6.880711 7.440459-10.836813 12.437264-2.313695 2.915399-3.416819 11.117199-5.02034 14.895245-0.99977 2.375094-8.410554 11.881608-8.410554 13.765515-0.007163 1.737574 2.491751 4.276397 4.833075 6.713912-13.382798 2.648316-27.02961 4.495384-40.890292 5.621021 2.594081-3.269463 3.218298-6.14393-5.047969-6.535857 2.215458-6.006807 7.40976-9.43079 9.607822-15.260565 1.044796-2.747577 0.181125-3.833305 1.065262-6.54609 3.0208-9.400091 1.713015-5.847172 0.007163-13.154601-3.992941-17.096377 1.420349-21.775956 6.082532-37.425378 4.78498-16.089443 4.341888-36.951587 7.40362-54.276161 1.457188-8.293897 3.836375-25.550932 0.958838-33.394574-3.245927-8.822946-17.520025-15.775288-24.059975-21.717627-9.256828-8.43409-14.174837-17.547655-21.049409-27.967982-3.491521-5.300726-7.468089-10.488889-10.188037-16.247033-5.822612-12.311397 0.00307-4.979408 0.986467-12.246929 0.935302-7.017834-0.840134-13.294794 1.945305-20.663622 3.085268-8.143471 10.778484-13.223163 13.311167-21.428032 2.273786-7.317663 0.542352-16.505929-6.969739-18.946514-4.188392-1.36509-8.809643 1.784646-13.011338 1.095961-5.863545-0.952698-12.502755-5.328355-17.10354-8.826016-6.427386-4.901637-8.833179-12.853749-15.677051-17.492396-5.727445-3.867074-9.79918-1.553379-15.925714-3.365654-6.392594-1.880837-10.338463-9.765411-15.492856-12.232602-7.734148-3.700275-12.093433 1.617847-20.260439 0.539282-6.946202-0.911766-17.537422-8.600889-24.022113-11.516288-13.195533-5.901407-21.230534-12.420891-26.503631-25.806759-4.51892-11.488659-11.106965-16.84055-18.86465-26.4013-7.853875-9.69685-10.314926-17.952884-22.431895-20.530592-1.416256-0.314155 2.962471 10.1645 3.419889 11.010775 4.324492 8.010441 10.82658 15.335267 16.055674 22.797215 7.693216 10.990309 4.41352 13.052271-3.409656 2.423189-8.952906-12.157901-19.335371-24.24724-27.097148-37.125549-2.931772-4.863774-2.364861-8.014534-7.205099-12.628622-4.676509-4.470825-10.79895-6.64535-15.509229-10.887978-16.939811-15.236006-20.022009-35.582403-18.090007-57.296961 0.63138-7.079232 3.187599-12.745279 2.057869-19.547195-0.928139-5.64865-4.266164-10.32516-8.43102-14.488992-1.344624-2.136663-4.720511-7.40669-4.91187-7.741311-3.846608-6.392594-6.839779-12.676717-12.94994-17.919115-3.501754-3.0208-12.577456-10.072403-21.113877-15.984043 38.364773-47.855938 88.575338-85.783759 146.176221-109.327988 0.454348 2.89391 1.696642 5.788843 3.560082 8.553817 4.736884 7.020904 9.249665 6.468318 18.492166 8.40646-0.99363 10.734482-13.530155 10.816347-22.018479 9.655917-10.133801-1.39579-20.793582-4.758374-29.568433 4.119831 4.846378 2.914376 18.151405 14.266935 16.383132 2.405793 9.704013-0.485047 19.086707-0.771573 28.585035 0.388856 3.805676 0.464581 16.554024 4.744048 20.007683 2.791579 1.454118-0.822738 2.997264-7.969509 4.529153-10.177803-2.706645 0.020466-5.607718-1.351787-8.3072-1.091868 6.290263-8.051373 12.55392-1.730411 20.557198 1.969864-8.80555 5.354961-3.580548 18.185174 5.034666 7.764847 7.072069-8.574283-1.730411-14.792914-10.717086-19.789719 9.058306-11.332093 14.649652-12.355399 23.171746 0.433882 1.406023-7.884574 7.767917-4.727675 14.420431-4.14746l0-1.972934c-2.924609 0.074701-6.04774-1.614777-8.952906-1.310855 6.77838-10.809183 2.453888-13.284561 12.140505-16.812921 7.720845-2.808976 29.735232-0.191358 32.44597-7.444553-15.406898 2.990101-34.015721 3.710508-47.917336 10.714016-5.996574 3.01773-13.134135 12.55699-19.120476 6.361895-6.136767-6.361895 4.38589-16.584724 9.768481-19.700691l-1.283226 0c24.3772-5.188162 49.624211-7.966439 75.524091-7.966439 16.738219 0 33.18275 1.239224 49.327452 3.440355-5.584182 2.934842-1.451048 4.91494-5.519714 7.915273-7.767917 5.714142-21.568225 10.485819-30.817889 14.096043 11.754718-0.030699 40.21798 11.025101 45.688575-5.467525-3.792373-0.580215-7.580652-1.163499-11.369955-1.747807 7.082302-4.696975 14.984273-8.498558 23.281239-11.287067 74.857918 14.830777 141.442406 52.801577 192.104249 106.08206C774.327614 262.396175 773.968433 262.381849 773.617439 262.396175L773.617439 262.396175 773.617439 262.396175zM839.905168 406.200372c0.679475-1.443885 2.249227-1.914606 2.901073-3.102664 1.36816-2.498914 1.064238-4.198625 2.747577-6.335289 1.798972-2.313695 4.239558-2.883677 6.253424-4.689812 0.809435-0.730641 1.26276-1.406023 1.63115-2.098801 6.04467 16.864086 10.857279 34.296107 14.359033 52.197826-0.102331 0.125867-0.166799 0.321318-0.300852 0.426719-0.873903 0.699941-6.617721 1.549286-7.795547 1.590218-4.157693 0.160659-7.242961-2.597151-10.225899-5.195326-3.044336-2.635013-6.607488-6.167466-8.768711-9.584286-2.310625-3.641947-0.884137-7.389294-0.716314-11.55722C840.123133 414.347936 838.420351 409.354202 839.905168 406.200372L839.905168 406.200372 839.905168 406.200372zM844.594981 593.990363c-7.0383-6.109138-15.338337-14.304797-20.339234-22.220071-5.341658-8.444323-2.047636-17.127076-1.658779-26.797319 0.324388-8.127098-3.645017-19.700691-0.191358-27.022447 1.587148-3.341095 5.218862-4.447289 6.716982-7.187703 3.181459-5.796006 2.478448-9.714246 6.379291-14.700817 4.187369-5.354961 9.819646-6.67298 14.485923-10.867512 4.88731-4.406356 4.748141-7.877411 7.846712-13.515828 2.25946-4.126994 7.587815-11.007705 12.621459-14.601556 2.730181 17.901719 4.1536 36.248575 4.1536 54.897308 0 32.278147-4.290723 63.563688-12.242835 93.371574C855.581196 603.595115 850.004177 598.704734 844.594981 593.990363L844.594981 593.990363 844.594981 593.990363zM844.594981 593.990363" p-id="11455" fill="#8a8a8a"></path></svg>