<?xml version="1.0" standalone="no"?><!DOCTYPE svg PUBLIC "-//W3C//DTD SVG 1.1//EN" "http://www.w3.org/Graphics/SVG/1.1/DTD/svg11.dtd"><svg t="1564101381013" class="icon" viewBox="0 0 1024 1024" version="1.1" xmlns="http://www.w3.org/2000/svg" p-id="3060" xmlns:xlink="http://www.w3.org/1999/xlink" width="128" height="128"><defs><style type="text/css"></style></defs><path d="M512 512m-512 0a512 512 0 1 0 1024 0 512 512 0 1 0-1024 0Z" fill="#FFFFFF" p-id="3061"></path><path d="M544.813851 305.350687c-25.263761-18.019343-54.165015-30.353194-86.688478-37.016836-57.856-11.844776-100.886925-7.145075-147.631761 16.552119-31.163224 15.803224-52.323343 30.437254-63.472716 43.917373 47.669493-19.333731 83.15797-29.550806 106.450149-30.63594 21.389373-1.001075 50.596299 5.097075 87.628418 18.294448-2.926806 1.054567-5.823045 2.170269-8.688717 3.347104-30.391403-2.705194-61.080836 1.10806-92.068298 11.43212-56.029612 18.676537-90.944955 44.253612-119.578747 88.155701-19.089194 29.26806-30.093373 52.52203-33.012537 69.769552 31.61409-40.57791 57.237015-67.163701 76.868776-79.757373 17.675463-11.340418 45.292896-20.525851 82.837015-27.571582-2.26197 2.68991-4.462806 5.433313-6.602507 8.230209-26.486448 12.792358-50.176 30.972179-71.076299 54.539463-39.187104 44.184836-56.633313 83.799881-59.476059 136.130865-1.895164 34.884776 0.198687 60.530627 6.296835 76.929911 7.091582-50.955463 15.986627-86.787821 26.692776-107.504717 9.376478-18.141612 27.907821-39.225313 55.586389-63.251104-0.664836 3.981373-1.222687 8.000955-1.665911 12.058746-15.222448 23.414448-25.836896 49.778627-31.843343 79.100179-11.844776 57.856-7.145075 100.886925 16.552119 147.631762 15.803224 31.163224 30.437254 52.323343 43.917373 63.472716-19.333731-47.669493-29.550806-83.15797-30.63594-106.450149-0.924657-19.83809 4.248836-46.400955 15.535761-79.703881 1.66591 4.279403 3.461731 8.497672 5.379821 12.647164-0.878806 26.501731 3.171343 53.232716 12.15809 80.185314 18.676537 56.029612 44.253612 90.944955 88.155701 119.578746 29.26806 19.089194 52.52203 30.093373 69.769552 33.012537-40.57791-31.61409-67.163701-57.237015-79.757373-76.868776-10.522746-16.399284-19.188537-41.357373-26.012656-74.858985 3.851463 3.010866 7.802269 5.891821 11.844776 8.642866 12.356776 22.474507 28.817194 42.824597 49.36597 61.050268 44.184836 39.187104 83.799881 56.633313 136.130866 59.47606 34.884776 1.895164 60.530627-0.198687 76.92991-6.296836-50.955463-7.091582-86.787821-15.986627-107.504716-26.692776-17.209313-8.895045-37.070328-26.02794-59.575403-51.391045 4.82197 0.618985 9.689791 1.077493 14.603462 1.375523 21.832597 13.151522 46.125851 22.466866 72.87212 27.94603 57.856 11.844776 100.886925 7.145075 147.631761-16.55212 31.163224-15.803224 52.323343-30.437254 63.472716-43.917373-47.669493 19.333731-83.15797 29.550806-106.450149 30.63594-19.54006 0.909373-45.621493-4.103642-78.229015-15.039044a219.854328 219.854328 0 0 0 12.631881-5.830687c26.02794 0.687761 52.269851-3.385313 78.725731-12.196298 56.029612-18.676537 90.944955-44.253612 119.578746-88.155702 19.089194-29.26806 30.093373-52.52203 33.012538-69.769552-31.61409 40.57791-57.237015 67.163701-76.868777 79.757373-16.850149 10.805493-42.717612 19.662328-77.610029 26.562866 2.529433-3.331821 4.967164-6.732418 7.313194-10.209433 24.102209-12.578388 45.812537-29.764776 65.138627-51.559164 39.187104-44.184836 56.633313-83.799881 59.476059-136.130866 1.895164-34.884776-0.198687-60.530627-6.296836-76.92991-7.091582 50.947821-15.986627 86.787821-26.692776 107.504716-9.437612 18.271522-28.16 39.523343-56.167164 63.755463 0.481433-3.614567 0.878806-7.259701 1.184478-10.935403 15.795582-23.819463 26.769194-50.726209 32.905552-80.720239 11.844776-57.856 7.145075-100.886925-16.552119-147.631761-15.803224-31.163224-30.437254-52.323343-43.917374-63.472717 19.333731 47.669493 29.550806 83.15797 30.635941 106.450149 0.985791 21.060776-4.913672 49.717493-17.698388 85.962508a214.757254 214.757254 0 0 0-3.775045-8.948537c2.376597-29.764776-1.482507-59.812299-11.592597-90.142568-18.676537-56.029612-44.253612-90.944955-88.155702-119.578746-29.26806-19.089194-52.52203-30.093373-69.769552-33.012537 40.57791 31.61409 67.163701 57.237015 79.757373 76.868776 11.592597 18.072836 20.938507 46.538507 28.037732 85.381731a219.120716 219.120716 0 0 0-6.969314-5.46388c-12.861134-27.968955-31.621731-52.888836-56.274149-74.752-44.184836-39.187104-83.799881-56.633313-136.130866-59.47606-34.884776-1.895164-60.530627 0.198687-76.92991 6.296836 50.947821 7.091582 86.787821 15.986627 107.504716 26.692776 19.173254 9.911403 41.632478 30.039881 67.37003 60.393075a208.964776 208.964776 0 0 0-8.581731-1.314388zM512 1008.716418c-274.332657 0-496.716418-222.383761-496.716418-496.716418S237.667343 15.283582 512 15.283582s496.716418 222.383761 496.716418 496.716418-222.391403 496.716418-496.716418 496.716418z m-310.776358-229.406567c-7.015164-26.746269-16.559761-44.582209-28.633791-53.500179-18.103403-13.380776-56.725015-38.973134-60.958567-57.856-4.233552-18.890507-15.948418-65.711761-4.233553-81.621971 11.714866-15.910209 38.285373-40.975284 39.194747-61.753313 0.909373-20.770388-2.162627-30.750567-18.561911-44.895522-16.399284-14.152597 5.723701-18.340299 5.975881-32.599881 0.252179-14.259582 0.435582-70.021731-5.975881-91.334686 10.36991-15.619821 35.893493-47.279761 76.58603-94.97218 22.344597 0.680119 36.802866-0.855881 43.382448-4.600358 9.865552-5.624358 10.912478-19.272597 8.008597-28.908895-1.933373-6.426746-7.748776-14.267224-17.430926-23.536717l-3.966089 7.748776c2.64406 7.053373 3.96609 12.318567 3.966089 15.787941 0 5.196418-4.080716 14.03797-7.848119 13.801074-3.767403-0.229254 1.650627-24.606567-3.767403-29.589015-3.614567-3.324179-8.383045-5.907104-14.297791-7.748776-3.45409 4.768478-3.45409 9.880836 0 15.337075 5.181134 8.192 6.235701 19.54006-1.811104 21.993075-8.046806 2.453015-18.493134 3.263045-21.695045-2.850389s-2.56-17.216955 3.591642-14.08382 10.02603 8.673433 11.875343 3.133134c1.849313-5.54794 0.191045-12.876418-11.875343-15.78794-12.066388-2.903881-20.151403 7.718209-20.151403 15.78794 0 8.069731 1.016358 19.769313 7.290268 25.51594-3.545791 4.569791-29.26806 33.501612-77.166806 86.795463-7.38197 22.161194-11.661373 43.626985-12.838209 64.389731s-2.590567 38.606328-4.22591 53.523105c-5.311045-0.160478-10.194149-3.629851-14.656955-10.40812s-8.207284-15.405851-11.233433-25.89803c-4.898388-2.567642-8.230209-1.375522-9.987821 3.584-2.64406 7.435463-4.699701 33.035463 2.64406 41.915224 7.343761 8.887403 34.938269 18.821731 41.556059 24.843463 6.625433 6.021731 15.298866 16.070687 13.426627 27.181851-1.872239 11.111164-2.154985 26.020299-13.426627 25.615283-11.271642-0.405015-22.604418-11.837134-18.424358-17.048835 4.18006-5.211701 3.889672 0.534925 10.094806 2.040358 6.205134 1.505433 13.69409 0.076418 13.151522-6.426747s-9.94197-28.404537-25.72991-28.404537-29.772418 5.142925-31.247284 22.107702c-1.474866 16.964776 10.308776 2.621134 17.942926 12.731224 2.399522 3.186627 1.367881 17.270448 7.015164 24.698268 8.765134 11.516179 23.093493 1.811104 23.093492 8.818627s-8.711642 37.154388-7.313194 66.154985c1.40609 29.000597 12.288 78.702806 39.913075 110.492657s51.818985 41.785313 63.763105 41.724179c7.970388-0.045851 12.960478-0.680119 14.985552-1.895164z m54.845134-574.295881c26.746269-7.015164 44.582209-16.559761 53.500179-28.633791 13.380776-18.103403 38.973134-56.725015 57.856-60.958567 18.890507-4.233552 65.711761-15.948418 81.62197-4.233552s40.975284 38.285373 61.753314 39.194746c20.770388 0.909373 30.750567-2.162627 44.895522-18.56191s18.340299 5.723701 32.599881 5.97588c14.259582 0.252179 70.021731 0.435582 91.334686-5.97588 15.619821 10.36991 47.279761 35.893493 94.972179 76.586029-0.680119 22.344597 0.855881 36.802866 4.600359 43.382448 5.624358 9.865552 19.272597 10.912478 28.908895 8.008597 6.426746-1.933373 14.267224-7.748776 23.536717-17.430925l-7.748777-3.96609c-7.053373 2.64406-12.318567 3.96609-15.78794 3.96609-5.196418 0-14.03797-4.080716-13.801074-7.84812s24.606567 1.650627 29.589014-3.767403c3.324179-3.614567 5.907104-8.383045 7.748777-14.297791-4.768478-3.45409-9.880836-3.45409-15.337075 0-8.192 5.181134-19.54006 6.235701-21.993075-1.811104s-3.263045-18.493134 2.850388-21.695045 17.216955-2.56 14.083821 3.591642c-3.133134 6.151642-8.673433 10.02603-3.133134 11.875343 5.54794 1.849313 12.876418 0.191045 15.78794-11.875343 2.903881-12.066388-7.718209-20.151403-15.78794-20.151403s-19.769313 1.016358-25.51594 7.290269c-4.569791-3.545791-33.501612-29.26806-86.795463-77.166806-22.161194-7.38197-43.626985-11.661373-64.389731-12.838209s-38.606328-2.590567-53.523105-4.225911c0.160478-5.311045 3.629851-10.194149 10.40812-14.656955s15.405851-8.207284 25.898029-11.233433c2.567642-4.898388 1.375522-8.230209-3.584-9.987821-7.435463-2.64406-33.035463-4.699701-41.915223 2.64406-8.887403 7.343761-18.821731 34.938269-24.843463 41.55606-6.021731 6.625433-16.070687 15.298866-27.181851 13.426626-11.111164-1.872239-26.020299-2.154985-25.615283-13.426626 0.405015-11.271642 11.837134-22.604418 17.048835-18.424359 5.211701 4.18006-0.534925 3.889672-2.040358 10.094806-1.505433 6.205134-0.076418 13.69409 6.426746 13.151523s28.404537-9.94197 28.404538-25.729911-5.135284-29.772418-22.10006-31.247283-2.621134 10.308776-12.731224 17.942925c-3.186627 2.407164-17.27809 1.367881-24.70591 7.022806-11.516179 8.765134-1.811104 23.093493-8.818627 23.093493-7.007522 0-37.154388-8.711642-66.154985-7.313194-29.000597 1.40609-78.702806 12.288-110.492657 39.913074s-41.785313 51.818985-41.724179 63.763105c0.045851 7.962746 0.672478 12.960478 1.895164 14.97791z m574.295881 54.845134c7.015164 26.746269 16.559761 44.582209 28.633791 53.50018 18.103403 13.380776 56.725015 38.973134 60.958567 57.856 4.233552 18.890507 15.948418 65.711761 4.233552 81.62197-11.714866 15.910209-38.285373 40.975284-39.194746 61.753313-0.909373 20.770388 2.162627 30.750567 18.56191 44.895523 16.399284 14.152597-5.723701 18.340299-5.97588 32.59988-0.252179 14.259582-0.435582 70.021731 5.97588 91.334687-10.36991 15.619821-35.893493 47.279761-76.58603 94.972179-22.344597-0.680119-36.802866 0.855881-43.382447 4.600358-9.865552 5.624358-10.912478 19.272597-8.008597 28.908896 1.933373 6.426746 7.748776 14.267224 17.430925 23.529074l3.96609-7.748776c-2.64406-7.053373-3.96609-12.318567-3.96609-15.78794 0-5.196418 4.080716-14.03797 7.848119-13.801075 3.767403 0.229254-1.650627 24.606567 3.767403 29.589015 3.614567 3.324179 8.383045 5.907104 14.297792 7.748776 3.45409-4.768478 3.45409-9.880836 0-15.337074-5.181134-8.192-6.235701-19.54006 1.811104-21.993075 8.046806-2.453015 18.493134-3.263045 21.695045 2.850388 3.20191 6.113433 2.56 17.216955-3.591642 14.083821-6.151642-3.133134-10.02603-8.673433-11.875343-3.133134-1.849313 5.54794-0.191045 12.876418 11.875343 15.78794 12.066388 2.903881 20.151403-7.718209 20.151403-15.78794s-1.016358-19.769313-7.290269-25.515941c3.545791-4.569791 29.26806-33.501612 77.166806-86.795462 7.38197-22.161194 11.661373-43.626985 12.838209-64.389732 1.176836-20.762746 2.590567-38.606328 4.225911-53.523104 5.311045 0.160478 10.194149 3.629851 14.656955 10.408119s8.207284 15.405851 11.233433 25.89803c4.898388 2.567642 8.230209 1.375522 9.987821-3.584 2.64406-7.435463 4.699701-33.035463-2.64406-41.915224-7.343761-8.887403-34.938269-18.821731-41.55606-24.843463s-15.298866-16.070687-13.426627-27.18185c1.872239-11.111164 2.154985-26.020299 13.426627-25.615284 11.271642 0.405015 22.604418 11.837134 18.424358 17.048836-4.18006 5.211701-3.889672-0.534925-10.094806-2.040358-6.205134-1.505433-13.69409-0.076418-13.151522 6.426746 0.542567 6.503164 9.94197 28.404537 25.729911 28.404537s29.772418-5.135284 31.247283-22.100059c1.474866-16.964776-10.308776-2.621134-17.942925-12.731224-2.407164-3.186627-1.367881-17.27809-7.022806-24.705911-8.765134-11.516179-23.093493-1.811104-23.093493-8.818627s8.711642-37.154388 7.313194-66.154985c-1.40609-29.000597-12.288-78.702806-39.913074-110.492656s-51.818985-41.785313-63.763105-41.724179c-7.970388 0.053493-12.960478 0.680119-14.97791 1.902805z m-54.845135 574.295881c-26.746269 7.015164-44.582209 16.559761-53.500179 28.633791-13.380776 18.103403-38.973134 56.725015-57.856 60.958567-18.890507 4.233552-65.711761 15.948418-81.62197 4.233553-15.910209-11.714866-40.975284-38.285373-61.753313-39.194747-20.770388-0.909373-30.750567 2.162627-44.895523 18.561911-14.152597 16.399284-18.340299-5.723701-32.59988-5.975881s-70.021731-0.435582-91.334687 5.975881c-15.619821-10.36991-47.279761-35.893493-94.972179-76.58603 0.680119-22.344597-0.855881-36.802866-4.600358-43.382448-5.624358-9.865552-19.272597-10.912478-28.908896-8.008597-6.426746 1.933373-14.267224 7.748776-23.536716 17.430925l7.748776 3.96609c7.053373-2.64406 12.318567-3.96609 15.78794-3.96609 5.196418 0 14.03797 4.080716 13.801075 7.84812-0.229254 3.767403-24.606567-1.650627-29.589015 3.767403-3.324179 3.614567-5.907104 8.383045-7.748776 14.297791 4.768478 3.45409 9.880836 3.45409 15.337075 0 8.192-5.181134 19.54006-6.235701 21.993074 1.811104 2.453015 8.046806 3.263045 18.493134-2.850388 21.695045-6.113433 3.20191-17.216955 2.56-14.083821-3.591642 3.133134-6.151642 8.673433-10.02603 3.133135-11.875343-5.54794-1.849313-12.876418-0.191045-15.787941 11.875343-2.903881 12.066388 7.718209 20.151403 15.787941 20.151403s19.769313-1.016358 25.51594-7.290268c4.569791 3.545791 33.501612 29.26806 86.795463 77.166806 22.161194 7.38197 43.626985 11.661373 64.389731 12.838209s38.606328 2.590567 53.523104 4.22591c-0.160478 5.311045-3.629851 10.194149-10.408119 14.656955s-15.405851 8.207284-25.89803 11.233433c-2.567642 4.898388-1.375522 8.230209 3.584 9.987821 7.435463 2.64406 33.035463 4.699701 41.915224-2.64406 8.887403-7.343761 18.821731-34.938269 24.843463-41.556059s16.070687-15.298866 27.18185-13.426627c11.111164 1.872239 26.020299 2.154985 25.615284 13.426627s-11.837134 22.604418-17.048836 18.424358c-5.211701-4.18006 0.534925-3.889672 2.040358-10.094806 1.505433-6.205134 0.076418-13.69409-6.426746-13.151523-6.503164 0.542567-28.404537 9.94197-28.404537 25.729911s5.135284 29.772418 22.100059 31.247283c16.964776 1.474866 2.621134-10.308776 12.731224-17.942925 3.186627-2.407164 17.27809-1.367881 24.705911-7.022806 11.516179-8.765134 1.811104-23.093493 8.818627-23.093492s37.154388 8.711642 66.154985 7.313194c29.000597-1.40609 78.702806-12.288 110.492656-39.913075s41.785313-51.818985 41.72418-63.763104c-0.045851-7.970388-0.680119-12.960478-1.895165-14.977911z" fill="#C9852A" p-id="3062"></path></svg>