<?xml version="1.0" standalone="no"?><!DOCTYPE svg PUBLIC "-//W3C//DTD SVG 1.1//EN" "http://www.w3.org/Graphics/SVG/1.1/DTD/svg11.dtd"><svg t="1563967748254" class="icon" viewBox="0 0 1499 1024" version="1.1" xmlns="http://www.w3.org/2000/svg" p-id="23348" xmlns:xlink="http://www.w3.org/1999/xlink" width="187.375" height="128"><defs><style type="text/css"></style></defs><path d="M665.630012 0.623858c-282.233216 0-511.064213 228.830998-511.064213 511.064213 0 173.80675 86.840989 327.400512 219.473132 419.731449 5.489948-19.214817 12.97624-37.805776 22.334105-55.523334-26.701109-7.111978-44.169124-33.438772-39.552577-61.262824 3.618375-21.835019 19.838674-38.429633 39.926892-43.545266-17.343244-11.478981-27.324966-32.315828-23.706592-54.150847 3.618375-21.835019 19.838674-38.429633 39.926892-43.545267-17.343244-11.478981-27.324966-32.315828-23.706592-54.150846 3.24406-19.589131 16.968929-35.809431 35.809431-42.422323v-4.242232c-14.723041-11.853296-22.833191-31.068113-19.46436-51.15633 2.121116-13.101011 9.108322-24.954307 19.46436-33.314 0-1.247715-0.124772-2.495431-0.124772-3.618375 0-21.335933 2.744974-41.923236 7.985378-61.637139 6.737663-26.701109 18.091873-50.782015 32.565371-72.117948 26.451566-39.427806 63.883027-70.121604 107.677836-88.463019 31.567199-13.849641 64.13257-20.33776 93.079567-18.466188 97.571342-6.238577 235.818204 81.351042 240.434751 227.33374 10.356038 8.359693 17.218472 20.088217 19.464359 33.189229 3.368831 20.088217-4.86609 39.427806-19.713903 51.281101v4.117461c18.840502 6.48812 32.690143 22.70842 35.934203 42.422322 3.618375 21.835019-6.363348 42.671865-23.706592 54.150847 20.088217 5.240405 36.308517 21.710247 39.926892 43.545266 3.618375 21.835019-6.363348 42.671865-23.706592 54.150847 20.088217 5.240405 36.308517 21.835019 39.926891 43.545266 4.86609 29.570854-15.097356 57.519678-44.66821 62.385769-1.372487 0.249543-2.744974 0.374315-4.11746 0.499086 13.350554 21.585476 23.706592 45.416839 31.068112 70.870232 132.507372-92.330937 219.348361-245.799927 219.348361-419.606677 0.249543-282.233216-228.581455-511.064213-510.81467-511.064213z m0 0" fill="#A0D9F6" p-id="23349"></path><path d="M454.017486 801.657122c0.998172-0.998172 1.871573-1.746802 2.869745-2.620202l1.62203-1.372487c2.994517-2.620202 5.989034-5.115633 8.983551-7.486292l0.873401-0.74863c6.862435-5.489948 14.099184-10.605581 21.460704-15.47167 0.499086-0.249543 0.873401-0.623858 1.372487-0.873401 3.24406-1.996345 6.363348-3.992689 9.73218-5.989034 0.748629-0.374315 1.497258-0.873401 2.121116-1.247715 3.24406-1.871573 6.612891-3.743146 9.981723-5.489948 0.499086-0.249543 0.998172-0.623858 1.62203-0.8734 7.985378-4.117461 16.095528-7.860607 24.330449-11.229439 0.748629-0.374315 1.497258-0.623858 2.37066-0.8734 7.735835-3.119288 15.471671-5.864262 23.457049-8.234922 0.873401-0.249543 1.871573-0.623858 2.744973-0.873401 8.734008-2.620202 17.592787-4.86609 26.451566-6.737663 1.247715-0.249543 2.370659-0.499086 3.618375-0.748629 7.985378-1.62203 16.095528-2.869745 24.330449-3.992689 1.372487-0.124772 2.744974-0.374315 4.117461-0.499086 4.741318-0.499086 9.357865-0.998172 14.099184-1.372487h25.702936C533.996041 724.922627 427.066834 619.241136 425.07049 487.981479c-10.356038 8.359693-17.343244 20.212989-19.46436 33.314-3.368831 19.963446 4.741318 39.178262 19.46436 51.15633v4.242233c-18.840502 6.48812-32.440599 22.70842-35.809431 42.422322-3.618375 21.835019 6.363348 42.671865 23.706592 54.150847-20.088217 5.240405-36.308517 21.710247-39.926892 43.545266-3.618375 21.835019 6.363348 42.671865 23.706592 54.150847-20.088217 5.240405-36.308517 21.835019-39.926892 43.545266-4.616547 27.824053 12.851468 54.275618 39.552577 61.262825 14.723041-27.699281 34.312173-52.903131 57.64445-74.114293zM665.879555 724.922627h-0.249543 0.249543z m0 0" fill="#FECF77" p-id="23350"></path><path d="M573.174303 262.144998C529.379494 280.486414 491.948033 311.180212 465.621239 350.608018c27.57451-40.425978 66.752772-70.62069 107.553064-88.46302zM665.630012 724.922627h0.249543c130.261484-0.124772 236.192519-103.809918 240.185208-233.07323-63.633484 39.053491-228.706226-17.592787-278.989156-104.309005C580.535824 468.392348 502.428842 539.387352 426.567748 491.599854c-1.247715-24.455221 1.122944-47.413184 6.48812-68.873888-5.365176 20.088217-7.985378 40.800292-7.985378 61.637139 0 1.247715 0.124772 2.495431 0.124771 3.618374C427.066834 619.241136 533.996041 724.922627 665.630012 724.922627z m0 0" fill="#FCE9EA" p-id="23351"></path><path d="M627.075607 387.540392C677.483308 474.131839 842.556051 530.902888 906.064763 491.849397 902.072074 621.23748 796.141039 724.797855 665.879555 724.922627h25.702937c4.741318 0.374315 9.357865 0.873401 13.974412 1.372487 1.372487 0.124772 2.869745 0.374315 4.242232 0.499086 4.741318 0.623858 9.607408 1.247715 14.348727 2.121116 3.24406 0.499086 6.48812 1.122944 9.732179 1.746802 1.247715 0.249543 2.620202 0.499086 3.867918 0.748629 8.983551 1.871573 17.717558 4.117461 26.202023 6.737663 1.122944 0.374315 2.121116 0.623858 3.24406 0.998172 4.491775 1.372487 8.858779 2.869745 13.225783 4.367004 3.24406 1.122944 6.48812 2.370659 9.607408 3.618375 0.873401 0.374315 1.871573 0.748629 2.744974 1.122943 8.11015 3.368831 16.2203 6.987206 23.956135 11.104667 0.748629 0.374315 1.372487 0.748629 2.121116 1.122944 7.236749 3.743146 14.223955 7.860607 21.086389 12.227611 0.623858 0.374315 1.247715 0.748629 1.871574 1.247715 7.236749 4.741318 14.348727 9.856951 21.086389 15.222127 0.499086 0.374315 0.998172 0.873401 1.62203 1.247716 3.493603 2.869745 6.987206 5.739491 10.356038 8.734007 0.748629 0.623858 1.372487 1.247715 2.121116 1.871573v0.124772c19.090045 17.343244 35.684659 37.306689 49.284757 59.141708 1.372487-0.124772 2.744974-0.249543 4.11746-0.499086 29.570854-4.86609 49.5343-32.814914 44.668211-62.385768-3.618375-21.835019-19.838674-38.429633-39.926892-43.545267 17.343244-11.478981 27.324966-32.315828 23.706592-54.150846-3.618375-21.835019-19.838674-38.429633-39.926892-43.545267 17.343244-11.478981 27.324966-32.315828 23.706592-54.150846-3.368831-20.33776-17.717558-36.183746-35.934202-42.422323v-4.117461c14.847813-11.853296 22.957963-31.192884 19.713902-51.281101-2.121116-13.101011-9.108322-24.954307-19.464359-33.189229-4.741318-145.982698-143.112952-233.447545-240.684294-227.333739h0.748629c8.359693 29.820397-8.484464 89.086877-39.926892 143.861581z m0 0" fill="#FCBA6F" p-id="23352"></path><path d="M876.992995 801.282807V887.125624c-33.064457-50.532472-166.944316-59.765566-211.238211-6.737663-44.543439-53.277446-179.546241-43.670038-211.737298 7.486293v-86.217132c-23.332277 21.211161-42.921409 46.415012-57.64445 74.363836-9.357865 17.717558-16.844157 36.308517-22.334105 55.523333 82.723529 57.519678 183.164616 91.332765 291.591081 91.332765 108.426465 0 208.992324-33.813086 291.715852-91.457536-7.361521-25.453393-17.84233-49.284757-31.068112-70.870233-13.600097-22.084562-30.194712-42.048008-49.284757-59.26648z m0 0" fill="#F4B3B3" p-id="23353"></path><path d="M874.871879 799.286463c-3.368831-2.994517-6.862435-5.989034-10.356038-8.734008-0.499086-0.374315-0.998172-0.873401-1.62203-1.247715-6.862435-5.365176-13.849641-10.480809-21.086389-15.222128-0.623858-0.374315-1.247715-0.748629-1.871574-1.247715-3.867918-2.495431-7.735835-4.86609-11.728524-7.111978-3.119288-1.746802-6.238577-3.493603-9.357865-5.115633-0.748629-0.374315-1.372487-0.748629-2.121116-1.122943-7.860607-3.992689-15.845985-7.735835-23.956135-11.104667-0.873401-0.374315-1.871573-0.748629-2.744974-1.122944-4.367004-1.746802-8.734008-3.368831-13.225783-4.86609-3.24406-1.122944-6.363348-2.121116-9.607408-3.119288-1.122944-0.374315-2.121116-0.623858-3.24406-0.998173-8.609236-2.620202-17.468015-4.86609-26.202023-6.737663-1.247715-0.249543-2.620202-0.499086-3.867918-0.748629-3.24406-0.623858-6.48812-1.247715-9.732179-1.746801-4.741318-0.748629-9.482637-1.497258-14.348727-2.121116-1.372487-0.124772-2.869745-0.374315-4.242232-0.499087-4.616547-0.499086-9.357865-0.998172-13.974412-1.372486h-51.655417c-4.741318 0.374315-9.357865 0.748629-14.099183 1.372486-1.372487 0.124772-2.744974 0.374315-4.117461 0.499087-8.11015 0.998172-16.2203 2.370659-24.330449 3.992689-1.247715 0.249543-2.370659 0.499086-3.618375 0.748629-8.858779 1.871573-17.717558 4.117461-26.451566 6.737663-0.873401 0.249543-1.871573 0.623858-2.744974 0.873401-3.368831 0.998172-6.737663 2.121116-10.106494 3.368831l-3.24406 1.122944c-3.368831 1.247715-6.737663 2.495431-10.106494 3.867918-0.748629 0.374315-1.62203 0.623858-2.37066 0.8734-8.234921 3.368831-16.345071 7.111978-24.330449 11.229439-0.499086 0.249543-0.998172 0.623858-1.62203 0.8734-4.117461 2.121116-8.11015 4.367004-12.102839 6.737663-3.24406 1.871573-6.48812 3.867918-9.73218 5.989034-0.499086 0.249543-0.873401 0.623858-1.372487 0.873401-7.361521 4.86609-14.59827 9.981723-21.460704 15.47167l-0.873401 0.74863c-3.119288 2.495431-6.113805 4.990861-8.983551 7.486292l-1.497258 1.372487c-0.998172 0.873401-1.871573 1.62203-2.869745 2.495431v86.341903c32.191056-51.15633 167.193859-60.763738 211.737297-7.486292 44.293895-53.027903 178.173754-43.794809 211.238211 6.737663v-85.842818c-0.623858-0.998172-1.247715-1.62203-1.996344-2.245887z m0 0" fill="#FEFEFE" p-id="23354"></path><path d="M426.567748 491.599854c75.861094 47.787498 154.092848-23.207506 200.507859-103.93469 31.567199-54.774705 48.411356-114.165956 40.051663-143.861582h-0.748629c-28.946996-1.871573-61.512367 4.616547-93.079566 18.466188C532.374011 279.987328 493.195749 310.18204 465.621239 350.608018c-14.59827 21.335933-25.95248 45.416839-32.565371 72.117948-5.365176 21.335933-7.860607 44.293895-6.48812 68.873888z m0 0" fill="#FECF77" p-id="23355"></path></svg>