<?xml version="1.0" standalone="no"?><!DOCTYPE svg PUBLIC "-//W3C//DTD SVG 1.1//EN" "http://www.w3.org/Graphics/SVG/1.1/DTD/svg11.dtd"><svg t="1563967704195" class="icon" viewBox="0 0 1024 1024" version="1.1" xmlns="http://www.w3.org/2000/svg" p-id="22933" xmlns:xlink="http://www.w3.org/1999/xlink" width="128" height="128"><defs><style type="text/css"></style></defs><path d="M512 512m-501.106383 0a501.106383 501.106383 0 1 0 1002.212766 0 501.106383 501.106383 0 1 0-1002.212766 0Z" fill="#B5C4FF" p-id="22934"></path><path d="M512 1024a512 512 0 1 1 512-512 512 512 0 0 1-512 512z m0-1002.212766a490.212766 490.212766 0 1 0 490.212766 490.212766A490.757447 490.757447 0 0 0 512 21.787234z" fill="#FFFFFF" p-id="22935"></path><path d="M513.089362 1002.212766V810.920851s-4.575319-2.723404-70.154894 1.851915A214.713191 214.713191 0 0 0 272.340426 939.574468 486.835745 486.835745 0 0 0 512 1002.212766z" fill="#333333" p-id="22936"></path><path d="M583.353191 812.772766c-65.361702-4.575319-70.26383-1.851915-70.263829-1.851915V1002.212766a486.835745 486.835745 0 0 0 239.659574-64.27234 214.495319 214.495319 0 0 0-169.395745-125.16766z" fill="#515151" p-id="22937"></path><path d="M286.828936 693.923404l232.142979 69.937022V185.845106c-68.629787 0-182.794894 39.870638-205.889362 192.925958C276.697872 620.93617 286.828936 693.923404 286.828936 693.923404z" fill="#5C3E31" p-id="22938"></path><path d="M745.23234 693.923404L513.089362 763.860426V185.845106c68.629787 0 182.90383 39.870638 205.998298 192.925958 36.384681 242.165106 26.144681 315.15234 26.14468 315.15234z" fill="#5C3E31" p-id="22939"></path><path d="M443.15234 682.920851H577.361702v242.818723H443.15234V682.920851z" p-id="22940"></path><path d="M443.15234 682.920851H577.361702v242.818723H443.15234V682.920851z" fill="#FFDDB8" p-id="22941"></path><path d="M513.089362 1018.008511h41.395744c5.555745-9.150638 70.045957-187.805957 69.501277-190.638298S539.234043 844.255319 539.234043 844.255319l-26.144681 28.977021zM501.106383 1018.008511h-41.286809c-5.555745-9.150638-70.045957-187.914894-69.501276-190.638298s87.148936 16.231489 87.148936 16.231489L501.106383 873.23234z" fill="#FFFFFF" p-id="22942"></path><path d="M577.797447 769.634043l74.839149 22.876595 35.513191 86.931064-157.521702-42.267234 47.169362-67.540425z" fill="#F1F2F2" p-id="22943"></path><path d="M443.15234 677.147234H577.361702v41.177872L443.15234 798.502128V677.147234z" fill="#E5C6A5" p-id="22944"></path><path d="M448.490213 775.40766l-74.839149 22.876595-35.513192 86.931064 157.521702-42.37617-47.169361-67.431489z" fill="#F1F2F2" p-id="22945"></path><path d="M313.73617 463.850213c-10.893617 3.921702-13.94383 24.946383-6.971915 46.951489s21.787234 36.602553 32.680851 32.680851 14.052766-24.946383 6.971915-46.842553-21.787234-36.602553-32.680851-32.789787z" fill="#FFDDB8" p-id="22946"></path><path d="M706.668936 469.732766c10.893617 3.921702 13.94383 24.837447 6.971915 46.842553s-21.787234 36.711489-32.680851 32.680851-13.94383-24.837447-6.971915-46.842553 21.787234-36.602553 32.680851-32.680851z" p-id="22947"></path><path d="M706.668936 469.732766c10.893617 3.921702 13.94383 24.837447 6.971915 46.842553s-21.787234 36.711489-32.680851 32.680851-13.94383-24.837447-6.971915-46.842553 21.787234-36.602553 32.680851-32.680851z" fill="#FFDDB8" p-id="22948"></path><path d="M513.089362 307.2v416.245106C489.559149 722.246809 392.170213 682.267234 362.212766 620.93617A236.609362 236.609362 0 0 1 337.702128 515.594894c0-115.036596 74.076596-208.394894 175.387234-208.394894z m0 0c101.419574 0 175.060426 93.358298 175.060425 208.394894A236.500426 236.500426 0 0 1 664.510638 620.93617c-30.393191 61.222128-127.455319 101.092766-150.985532 102.4z" fill="#FFDDB8" p-id="22949"></path><path d="M569.845106 301.862128a546.097021 546.097021 0 0 1-228.765957 172.990638c-32.680851-57.845106-25.055319-102.4-25.055319-124.514043s44.66383-164.493617 187.588085-164.493617c26.798298-0.653617 77.671489 81.702128 66.233191 116.017022z" fill="#5C3E31" p-id="22950"></path></svg>