<?xml version="1.0" standalone="no"?><!DOCTYPE svg PUBLIC "-//W3C//DTD SVG 1.1//EN" "http://www.w3.org/Graphics/SVG/1.1/DTD/svg11.dtd"><svg t="1564105350605" class="icon" viewBox="0 0 1024 1024" version="1.1" xmlns="http://www.w3.org/2000/svg" p-id="6879" xmlns:xlink="http://www.w3.org/1999/xlink" width="128" height="128"><defs><style type="text/css"></style></defs><path d="M400.290909 600.436364c-6.981818 0-13.963636-2.327273-20.945454-6.981819-11.636364-6.981818-16.290909-20.945455-13.963637-34.90909l18.618182-100.072728-74.472727-72.145454c-9.309091-9.309091-13.963636-23.272727-9.309091-34.909091 4.654545-11.636364 13.963636-20.945455 27.927273-23.272727l102.4-13.963637 46.545454-90.763636c6.981818-11.636364 18.618182-18.618182 30.254546-18.618182s25.6 6.981818 30.254545 18.618182l46.545455 90.763636 102.4 13.963637c13.963636 2.327273 23.272727 11.636364 27.927272 23.272727 4.654545 11.636364 0 25.6-9.309091 34.909091l-74.472727 72.145454 20.945455 100.072728c2.327273 13.963636-2.327273 25.6-13.963637 34.90909-11.636364 6.981818-25.6 9.309091-37.236363 2.327273l-93.090909-46.545454-93.09091 46.545454c-2.327273 2.327273-6.981818 4.654545-13.963636 4.654546z m9.309091-211.781819l34.909091 34.909091c9.309091 6.981818 11.636364 18.618182 9.309091 30.254546l-9.309091 48.872727 46.545454-23.272727c9.309091-4.654545 20.945455-4.654545 32.581819 0l46.545454 23.272727-9.309091-48.872727c-2.327273-11.636364 2.327273-23.272727 9.309091-30.254546l34.909091-34.909091-46.545454-6.981818c-11.636364-2.327273-20.945455-9.309091-25.6-18.618182l-23.272728-46.545454-23.272727 46.545454c-4.654545 9.309091-13.963636 16.290909-25.6 18.618182l-51.2 6.981818z" fill="#515151" p-id="6880"></path><path d="M835.490909 1019.345455c-6.981818 0-13.963636 0-20.945454-2.327273-44.218182-6.981818-97.745455-41.890909-160.581819-86.109091-44.218182-30.254545-109.381818-74.472727-132.654545-74.472727s-93.090909 46.545455-139.636364 76.8C314.181818 977.454545 256 1017.018182 209.454545 1019.345455c-44.218182 2.327273-83.781818-11.636364-114.036363-39.563637C62.836364 949.527273 46.545455 907.636364 46.545455 861.090909V162.909091c2.327273-90.763636 72.145455-162.909091 160.581818-162.909091h614.4c88.436364 0 160.581818 72.145455 160.581818 160.581818v698.181818c0 51.2-18.618182 97.745455-53.527273 125.672728-25.6 23.272727-58.181818 34.909091-93.090909 34.909091z m-9.309091-93.09091c16.290909 2.327273 27.927273-2.327273 39.563637-9.30909 13.963636-11.636364 20.945455-32.581818 20.945454-55.854546V162.909091c0-37.236364-30.254545-67.490909-67.490909-67.490909H207.127273C169.890909 93.090909 141.963636 123.345455 141.963636 160.581818v698.181818c0 20.945455 6.981818 39.563636 20.945455 51.2 11.636364 11.636364 25.6 16.290909 44.218182 13.963637 20.945455 0 83.781818-41.890909 125.672727-69.818182 74.472727-48.872727 139.636364-90.763636 190.836364-90.763636 53.527273 0 116.363636 44.218182 186.181818 90.763636 39.563636 30.254545 95.418182 69.818182 116.363636 72.145454z" fill="#515151" p-id="6881"></path></svg>