<?xml version="1.0" standalone="no"?><!DOCTYPE svg PUBLIC "-//W3C//DTD SVG 1.1//EN" "http://www.w3.org/Graphics/SVG/1.1/DTD/svg11.dtd"><svg t="1564105379433" class="icon" viewBox="0 0 1412 1024" version="1.1" xmlns="http://www.w3.org/2000/svg" p-id="7914" xmlns:xlink="http://www.w3.org/1999/xlink" width="176.5" height="128"><defs><style type="text/css"></style></defs><path d="M1412.413793 833.324138V70.62069c0-38.841379-31.77931-70.62069-70.62069-70.62069H70.62069C31.77931 0 0 31.77931 0 70.62069v882.75862c0 38.841379 31.77931 70.62069 70.62069 70.62069h1271.172413c38.841379 0 70.62069-31.77931 70.62069-70.62069v-120.055172zM1271.172414 953.37931H141.241379c-14.124138 0-24.717241-3.531034-35.310345-10.593103l476.689656-444.910345 324.855172 324.855172 49.434483-49.434482-28.248276-28.248276 134.17931-155.365517-49.434482-49.434483-130.648276 158.896552-247.172414-247.172414-49.434483-49.434483L70.62069 879.227586V141.241379c0-38.841379 31.77931-70.62069 70.620689-70.620689h1129.931035c38.841379 0 70.62069 31.77931 70.620689 70.620689v621.462069L1062.841379 494.344828l-49.434482 49.434482 328.386206 317.793104v21.186207c0 38.841379-31.77931 70.62069-70.620689 70.620689z" fill="#515151" p-id="7915"></path><path d="M882.758621 211.862069c-77.682759 0-141.241379 63.558621-141.24138 141.241379s63.558621 141.241379 141.24138 141.24138 141.241379-63.558621 141.241379-141.24138-63.558621-141.241379-141.241379-141.241379z m0 211.862069c-38.841379 0-70.62069-31.77931-70.62069-70.62069s31.77931-70.62069 70.62069-70.620689 70.62069 31.77931 70.620689 70.620689-31.77931 70.62069-70.620689 70.62069z" fill="#515151" p-id="7916"></path></svg>