<?xml version="1.0" standalone="no"?><!DOCTYPE svg PUBLIC "-//W3C//DTD SVG 1.1//EN" "http://www.w3.org/Graphics/SVG/1.1/DTD/svg11.dtd"><svg t="1564012869274" class="icon" viewBox="0 0 1024 1024" version="1.1" xmlns="http://www.w3.org/2000/svg" p-id="2411" xmlns:xlink="http://www.w3.org/1999/xlink" width="128" height="128"><defs><style type="text/css"></style></defs><path d="M641.775 660.669l-254.414-254.415 19.586-19.587 254.415 254.415z" fill="#515151" p-id="2412"></path><path d="M677.4 641.1l-35.7 35.7-270.5-270.5 35.7-35.7 270.5 270.5z m-35.7 3.50000001l3.5-3.5-238.3-238.30000001-3.5 3.5 238.3 238.30000001z" fill="#515151" p-id="2413"></path><path d="M387.307 641.133L641.72 386.72l19.587 19.586L406.893 660.72z" fill="#515151" p-id="2414"></path><path d="M677.4 406.2L406.9 676.8l-35.7-35.7 270.5-270.5 35.7 35.6zM406.9 644.6l238.3-238.30000001-3.5-3.5-238.3 238.30000001 3.5 3.5z" fill="#515151" p-id="2415"></path><path d="M327.3 61.9L895.20000001 509.1 327.3 956.2z" fill="#515151" p-id="2416"></path></svg>