<?xml version="1.0" standalone="no"?><!DOCTYPE svg PUBLIC "-//W3C//DTD SVG 1.1//EN" "http://www.w3.org/Graphics/SVG/1.1/DTD/svg11.dtd"><svg t="1564012851603" class="icon" viewBox="0 0 1024 1024" version="1.1" xmlns="http://www.w3.org/2000/svg" p-id="2088" xmlns:xlink="http://www.w3.org/1999/xlink" width="128" height="128"><defs><style type="text/css"></style></defs><path d="M341.99766667 641.775l254.415-254.414 19.587 19.586-254.415 254.415z" fill="#707070" p-id="2089"></path><path d="M361.56666667 677.4l-35.7-35.7 270.5-270.5 35.7 35.7-270.5 270.5z m-3.50000002-35.7l3.5 3.5 238.30000002-238.3-3.5-3.5-238.30000002 238.3z" fill="#707070" p-id="2090"></path><path d="M361.53366667 387.307L615.94666667 641.72l-19.586 19.587L341.94666667 406.893z" fill="#707070" p-id="2091"></path><path d="M596.46666667 677.4L325.86666667 406.9l35.7-35.70000001 270.5 270.50000001-35.6 35.7zM358.06666667 406.9l238.30000001 238.3 3.5-3.5-238.30000001-238.3-3.5 3.5z" fill="#707070" p-id="2092"></path><path d="M940.76666666 327.3L493.56666667 895.20000001 46.46666667 327.3z" fill="#707070" p-id="2093"></path></svg>