<?xml version="1.0" standalone="no"?><!DOCTYPE svg PUBLIC "-//W3C//DTD SVG 1.1//EN" "http://www.w3.org/Graphics/SVG/1.1/DTD/svg11.dtd"><svg t="1563950006230" class="icon" viewBox="0 0 1024 1024" version="1.1" xmlns="http://www.w3.org/2000/svg" p-id="22227" xmlns:xlink="http://www.w3.org/1999/xlink" width="200" height="200"><defs><style type="text/css"></style></defs><path d="M452.266667 277.333333H981.333333v85.333334H452.266667zM42.666667 277.333333h194.133333v85.333334H42.666667zM791.466667 661.333333H981.333333v85.333334h-189.866666zM42.666667 661.333333h531.2v85.333334H42.666667z" fill="#cdcdcd" p-id="22228"></path><path d="M341.333333 490.666667c-93.866667 0-170.666667-76.8-170.666666-170.666667s76.8-170.666667 170.666666-170.666667 170.666667 76.8 170.666667 170.666667-76.8 170.666667-170.666667 170.666667z m0-256c-46.933333 0-85.333333 38.4-85.333333 85.333333s38.4 85.333333 85.333333 85.333333 85.333333-38.4 85.333334-85.333333-38.4-85.333333-85.333334-85.333333zM682.666667 874.666667c-93.866667 0-170.666667-76.8-170.666667-170.666667s76.8-170.666667 170.666667-170.666667 170.666667 76.8 170.666666 170.666667-76.8 170.666667-170.666666 170.666667z m0-256c-46.933333 0-85.333333 38.4-85.333334 85.333333s38.4 85.333333 85.333334 85.333333 85.333333-38.4 85.333333-85.333333-38.4-85.333333-85.333333-85.333333z" fill="#cdcdcd" p-id="22229"></path></svg>