<?xml version="1.0" standalone="no"?><!DOCTYPE svg PUBLIC "-//W3C//DTD SVG 1.1//EN" "http://www.w3.org/Graphics/SVG/1.1/DTD/svg11.dtd"><svg t="1564105277692" class="icon" viewBox="0 0 1024 1024" version="1.1" xmlns="http://www.w3.org/2000/svg" p-id="4240" xmlns:xlink="http://www.w3.org/1999/xlink" width="128" height="128"><defs><style type="text/css"></style></defs><path d="M384.02 655.83V368.17c0-26.5 21.48-47.98 47.98-47.98h463.64v-79.02c0-26.5-21.48-47.98-47.98-47.98H176c-26.5 0-47.98 21.48-47.98 47.98v541.66c0 26.5 21.48 47.98 47.98 47.98h671.66c26.5 0 47.98-21.48 47.98-47.98v-79.02H432c-26.5 0-47.98-21.48-47.98-47.98z" fill="#515151" p-id="4241"></path><path d="M847.79 384.19H496.12c-26.5 0-47.98 21.48-47.98 47.98v159.66c0 26.5 21.48 47.98 47.98 47.98h351.66c26.5 0 47.98-21.48 47.98-47.98V432.17c0-26.5-21.48-47.98-47.97-47.98zM575.92 576.05c-35.3 0-63.92-28.62-63.92-63.92s28.62-63.92 63.92-63.92 63.92 28.62 63.92 63.92-28.62 63.92-63.92 63.92z" fill="#515151" p-id="4242"></path></svg>