<?xml version="1.0" standalone="no"?><!DOCTYPE svg PUBLIC "-//W3C//DTD SVG 1.1//EN" "http://www.w3.org/Graphics/SVG/1.1/DTD/svg11.dtd"><svg t="1564103443951" class="icon" viewBox="0 0 1024 1024" version="1.1" xmlns="http://www.w3.org/2000/svg" p-id="8521" xmlns:xlink="http://www.w3.org/1999/xlink" width="128" height="128"><defs><style type="text/css"></style></defs><path d="M512 1011.2c-277.775059 0-502.964706-225.189647-502.964706-502.964706C9.035294 230.460235 234.224941 5.270588 512 5.270588c277.775059 0 502.964706 225.189647 502.964706 502.964706 0 277.775059-225.189647 502.964706-502.964706 502.964706z m0-42.164706c254.494118 0 460.8-206.305882 460.8-460.8 0-254.494118-206.305882-460.8-460.8-460.8-254.494118 0-460.8 206.305882-460.8 460.8 0 254.494118 206.305882 460.8 460.8 460.8z" fill="#4A4A4A" p-id="8522"></path><path d="M512 838.113882c-182.211765 0-329.878588-147.696941-329.878588-329.878588 0-182.211765 147.696941-329.878588 329.878588-329.878588 182.211765 0 329.878588 147.696941 329.878588 329.878588 0 182.211765-147.696941 329.878588-329.878588 329.878588z m0-36.141176c162.213647 0 293.737412-131.523765 293.737412-293.737412S674.213647 214.497882 512 214.497882s-293.737412 131.523765-293.737412 293.737412 131.523765 293.737412 293.737412 293.737412z" fill="#4A4A4A" p-id="8523"></path><path d="M512 320.090353a18.070588 18.070588 0 0 1 0 36.141176 152.003765 152.003765 0 0 0-138.24 88.726589 18.070588 18.070588 0 1 1-32.858353-15.058824A188.144941 188.144941 0 0 1 512 320.090353z" fill="#4A4A4A" p-id="8524"></path></svg>